%TF.GenerationSoftware,KiCad,Pcbnew,5.1.10*%
%TF.CreationDate,2021-09-04T21:06:35+02:00*%
%TF.ProjectId,Termostato-Diferencial-Mega,5465726d-6f73-4746-9174-6f2d44696665,rev?*%
%TF.SameCoordinates,PX9048090PY5896390*%
%TF.FileFunction,Legend,Bot*%
%TF.FilePolarity,Positive*%
%FSLAX46Y46*%
G04 Gerber Fmt 4.6, Leading zero omitted, Abs format (unit mm)*
G04 Created by KiCad (PCBNEW 5.1.10) date 2021-09-04 21:06:35*
%MOMM*%
%LPD*%
G01*
G04 APERTURE LIST*
%ADD10C,0.100000*%
%ADD11C,0.200000*%
%ADD12C,0.150000*%
%ADD13C,0.300000*%
%ADD14C,0.120000*%
G04 APERTURE END LIST*
D10*
X48291142Y-18373714D02*
X47376857Y-18373714D01*
X47834000Y-18830857D02*
X47834000Y-17916571D01*
X45891142Y-18373714D02*
X44976857Y-18373714D01*
X42862571Y-18830857D02*
X43548285Y-18830857D01*
X43205428Y-18830857D02*
X43205428Y-17630857D01*
X43319714Y-17802285D01*
X43434000Y-17916571D01*
X43548285Y-17973714D01*
X41776857Y-17630857D02*
X42348285Y-17630857D01*
X42405428Y-18202285D01*
X42348285Y-18145142D01*
X42234000Y-18088000D01*
X41948285Y-18088000D01*
X41834000Y-18145142D01*
X41776857Y-18202285D01*
X41719714Y-18316571D01*
X41719714Y-18602285D01*
X41776857Y-18716571D01*
X41834000Y-18773714D01*
X41948285Y-18830857D01*
X42234000Y-18830857D01*
X42348285Y-18773714D01*
X42405428Y-18716571D01*
X39662571Y-18830857D02*
X40348285Y-18830857D01*
X40005428Y-18830857D02*
X40005428Y-17630857D01*
X40119714Y-17802285D01*
X40234000Y-17916571D01*
X40348285Y-17973714D01*
X38634000Y-17630857D02*
X38862571Y-17630857D01*
X38976857Y-17688000D01*
X39034000Y-17745142D01*
X39148285Y-17916571D01*
X39205428Y-18145142D01*
X39205428Y-18602285D01*
X39148285Y-18716571D01*
X39091142Y-18773714D01*
X38976857Y-18830857D01*
X38748285Y-18830857D01*
X38634000Y-18773714D01*
X38576857Y-18716571D01*
X38519714Y-18602285D01*
X38519714Y-18316571D01*
X38576857Y-18202285D01*
X38634000Y-18145142D01*
X38748285Y-18088000D01*
X38976857Y-18088000D01*
X39091142Y-18145142D01*
X39148285Y-18202285D01*
X39205428Y-18316571D01*
X48291142Y-12912714D02*
X47376857Y-12912714D01*
X47834000Y-13369857D02*
X47834000Y-12455571D01*
X45891142Y-12912714D02*
X44976857Y-12912714D01*
X42862571Y-13369857D02*
X43548285Y-13369857D01*
X43205428Y-13369857D02*
X43205428Y-12169857D01*
X43319714Y-12341285D01*
X43434000Y-12455571D01*
X43548285Y-12512714D01*
X42462571Y-12169857D02*
X41719714Y-12169857D01*
X42119714Y-12627000D01*
X41948285Y-12627000D01*
X41834000Y-12684142D01*
X41776857Y-12741285D01*
X41719714Y-12855571D01*
X41719714Y-13141285D01*
X41776857Y-13255571D01*
X41834000Y-13312714D01*
X41948285Y-13369857D01*
X42291142Y-13369857D01*
X42405428Y-13312714D01*
X42462571Y-13255571D01*
X39662571Y-13369857D02*
X40348285Y-13369857D01*
X40005428Y-13369857D02*
X40005428Y-12169857D01*
X40119714Y-12341285D01*
X40234000Y-12455571D01*
X40348285Y-12512714D01*
X38634000Y-12569857D02*
X38634000Y-13369857D01*
X38919714Y-12112714D02*
X39205428Y-12969857D01*
X38462571Y-12969857D01*
X7307142Y16235715D02*
X8221428Y16235715D01*
X7764285Y16692858D02*
X7764285Y15778572D01*
X14278571Y16235715D02*
X15192857Y16235715D01*
X41021000Y-23749000D02*
X40259000Y-24511000D01*
X41021000Y-23749000D02*
X41783000Y-24511000D01*
X41021000Y-25527000D02*
X41021000Y-23749000D01*
X47680285Y-25443571D02*
X48180285Y-24729285D01*
X48537428Y-25443571D02*
X48537428Y-23943571D01*
X47966000Y-23943571D01*
X47823142Y-24015000D01*
X47751714Y-24086428D01*
X47680285Y-24229285D01*
X47680285Y-24443571D01*
X47751714Y-24586428D01*
X47823142Y-24657857D01*
X47966000Y-24729285D01*
X48537428Y-24729285D01*
X47037428Y-24657857D02*
X46537428Y-24657857D01*
X46323142Y-25443571D02*
X47037428Y-25443571D01*
X47037428Y-23943571D01*
X46323142Y-23943571D01*
X44966000Y-25443571D02*
X45680285Y-25443571D01*
X45680285Y-23943571D01*
X44466000Y-24657857D02*
X43966000Y-24657857D01*
X43751714Y-25443571D02*
X44466000Y-25443571D01*
X44466000Y-23943571D01*
X43751714Y-23943571D01*
X43180285Y-25372142D02*
X42966000Y-25443571D01*
X42608857Y-25443571D01*
X42466000Y-25372142D01*
X42394571Y-25300714D01*
X42323142Y-25157857D01*
X42323142Y-25015000D01*
X42394571Y-24872142D01*
X42466000Y-24800714D01*
X42608857Y-24729285D01*
X42894571Y-24657857D01*
X43037428Y-24586428D01*
X43108857Y-24515000D01*
X43180285Y-24372142D01*
X43180285Y-24229285D01*
X43108857Y-24086428D01*
X43037428Y-24015000D01*
X42894571Y-23943571D01*
X42537428Y-23943571D01*
X42323142Y-24015000D01*
X-23575143Y-34451857D02*
X-23575143Y-33251857D01*
X-23860858Y-33251857D01*
X-24032286Y-33309000D01*
X-24146572Y-33423285D01*
X-24203715Y-33537571D01*
X-24260858Y-33766142D01*
X-24260858Y-33937571D01*
X-24203715Y-34166142D01*
X-24146572Y-34280428D01*
X-24032286Y-34394714D01*
X-23860858Y-34451857D01*
X-23575143Y-34451857D01*
X-24718000Y-34109000D02*
X-25289429Y-34109000D01*
X-24603715Y-34451857D02*
X-25003715Y-33251857D01*
X-25403715Y-34451857D01*
X-25632286Y-33251857D02*
X-26318000Y-33251857D01*
X-25975143Y-34451857D02*
X-25975143Y-33251857D01*
X-26660858Y-34109000D02*
X-27232286Y-34109000D01*
X-26546572Y-34451857D02*
X-26946572Y-33251857D01*
X-27346572Y-34451857D01*
X-29575143Y-33994714D02*
X-30489429Y-33994714D01*
X-33803715Y-33994714D02*
X-34718001Y-33994714D01*
X-34260858Y-34451857D02*
X-34260858Y-33537571D01*
X-35860858Y-33251857D02*
X-35289429Y-33251857D01*
X-35232286Y-33823285D01*
X-35289429Y-33766142D01*
X-35403715Y-33709000D01*
X-35689429Y-33709000D01*
X-35803715Y-33766142D01*
X-35860858Y-33823285D01*
X-35918001Y-33937571D01*
X-35918001Y-34223285D01*
X-35860858Y-34337571D01*
X-35803715Y-34394714D01*
X-35689429Y-34451857D01*
X-35403715Y-34451857D01*
X-35289429Y-34394714D01*
X-35232286Y-34337571D01*
X-8208143Y-34451857D02*
X-8208143Y-33251857D01*
X-8493858Y-33251857D01*
X-8665286Y-33309000D01*
X-8779572Y-33423285D01*
X-8836715Y-33537571D01*
X-8893858Y-33766142D01*
X-8893858Y-33937571D01*
X-8836715Y-34166142D01*
X-8779572Y-34280428D01*
X-8665286Y-34394714D01*
X-8493858Y-34451857D01*
X-8208143Y-34451857D01*
X-9351000Y-34109000D02*
X-9922429Y-34109000D01*
X-9236715Y-34451857D02*
X-9636715Y-33251857D01*
X-10036715Y-34451857D01*
X-10265286Y-33251857D02*
X-10951000Y-33251857D01*
X-10608143Y-34451857D02*
X-10608143Y-33251857D01*
X-11293858Y-34109000D02*
X-11865286Y-34109000D01*
X-11179572Y-34451857D02*
X-11579572Y-33251857D01*
X-11979572Y-34451857D01*
X-14208143Y-33994714D02*
X-15122429Y-33994714D01*
X-18436715Y-33994714D02*
X-19351001Y-33994714D01*
X-18893858Y-34451857D02*
X-18893858Y-33537571D01*
X-20493858Y-33251857D02*
X-19922429Y-33251857D01*
X-19865286Y-33823285D01*
X-19922429Y-33766142D01*
X-20036715Y-33709000D01*
X-20322429Y-33709000D01*
X-20436715Y-33766142D01*
X-20493858Y-33823285D01*
X-20551001Y-33937571D01*
X-20551001Y-34223285D01*
X-20493858Y-34337571D01*
X-20436715Y-34394714D01*
X-20322429Y-34451857D01*
X-20036715Y-34451857D01*
X-19922429Y-34394714D01*
X-19865286Y-34337571D01*
X6777857Y-34451857D02*
X6777857Y-33251857D01*
X6492142Y-33251857D01*
X6320714Y-33309000D01*
X6206428Y-33423285D01*
X6149285Y-33537571D01*
X6092142Y-33766142D01*
X6092142Y-33937571D01*
X6149285Y-34166142D01*
X6206428Y-34280428D01*
X6320714Y-34394714D01*
X6492142Y-34451857D01*
X6777857Y-34451857D01*
X5635000Y-34109000D02*
X5063571Y-34109000D01*
X5749285Y-34451857D02*
X5349285Y-33251857D01*
X4949285Y-34451857D01*
X4720714Y-33251857D02*
X4035000Y-33251857D01*
X4377857Y-34451857D02*
X4377857Y-33251857D01*
X3692142Y-34109000D02*
X3120714Y-34109000D01*
X3806428Y-34451857D02*
X3406428Y-33251857D01*
X3006428Y-34451857D01*
X777857Y-33994714D02*
X-136429Y-33994714D01*
X-3450715Y-33994714D02*
X-4365000Y-33994714D01*
X-3907858Y-34451857D02*
X-3907858Y-33537571D01*
X-5507858Y-33251857D02*
X-4936429Y-33251857D01*
X-4879286Y-33823285D01*
X-4936429Y-33766142D01*
X-5050715Y-33709000D01*
X-5336429Y-33709000D01*
X-5450715Y-33766142D01*
X-5507858Y-33823285D01*
X-5565000Y-33937571D01*
X-5565000Y-34223285D01*
X-5507858Y-34337571D01*
X-5450715Y-34394714D01*
X-5336429Y-34451857D01*
X-5050715Y-34451857D01*
X-4936429Y-34394714D01*
X-4879286Y-34337571D01*
X-21990000Y-17524333D02*
X-21190000Y-17524333D01*
X-21590000Y-17524333D02*
X-21590000Y-16124333D01*
X-21456667Y-16324333D01*
X-21323334Y-16457666D01*
X-21190000Y-16524333D01*
X-28334334Y-503333D02*
X-29267667Y-503333D01*
X-28667667Y-1903333D01*
X-30401000Y-970000D02*
X-30401000Y-1903333D01*
X-30067667Y-436666D02*
X-29734334Y-1436666D01*
X-30601000Y-1436666D01*
X-31801000Y-503333D02*
X-31134334Y-503333D01*
X-31067667Y-1170000D01*
X-31134334Y-1103333D01*
X-31267667Y-1036666D01*
X-31601000Y-1036666D01*
X-31734334Y-1103333D01*
X-31801000Y-1170000D01*
X-31867667Y-1303333D01*
X-31867667Y-1636666D01*
X-31801000Y-1770000D01*
X-31734334Y-1836666D01*
X-31601000Y-1903333D01*
X-31267667Y-1903333D01*
X-31134334Y-1836666D01*
X-31067667Y-1770000D01*
X-32534334Y-1903333D02*
X-32801000Y-1903333D01*
X-32934334Y-1836666D01*
X-33001000Y-1770000D01*
X-33134334Y-1570000D01*
X-33201000Y-1303333D01*
X-33201000Y-770000D01*
X-33134334Y-636666D01*
X-33067667Y-570000D01*
X-32934334Y-503333D01*
X-32667667Y-503333D01*
X-32534334Y-570000D01*
X-32467667Y-636666D01*
X-32401000Y-770000D01*
X-32401000Y-1103333D01*
X-32467667Y-1236666D01*
X-32534334Y-1303333D01*
X-32667667Y-1370000D01*
X-32934334Y-1370000D01*
X-33067667Y-1303333D01*
X-33134334Y-1236666D01*
X-33201000Y-1103333D01*
X-34467667Y-503333D02*
X-33801000Y-503333D01*
X-33734334Y-1170000D01*
X-33801000Y-1103333D01*
X-33934334Y-1036666D01*
X-34267667Y-1036666D01*
X-34401000Y-1103333D01*
X-34467667Y-1170000D01*
X-34534334Y-1303333D01*
X-34534334Y-1636666D01*
X-34467667Y-1770000D01*
X-34401000Y-1836666D01*
X-34267667Y-1903333D01*
X-33934334Y-1903333D01*
X-33801000Y-1836666D01*
X-33734334Y-1770000D01*
X-36201000Y-503333D02*
X-36201000Y-1636666D01*
X-36267667Y-1770000D01*
X-36334334Y-1836666D01*
X-36467667Y-1903333D01*
X-36734334Y-1903333D01*
X-36867667Y-1836666D01*
X-36934334Y-1770000D01*
X-37001000Y-1636666D01*
X-37001000Y-503333D01*
X-37534334Y-503333D02*
X-38401000Y-503333D01*
X-37934334Y-1036666D01*
X-38134334Y-1036666D01*
X-38267667Y-1103333D01*
X-38334334Y-1170000D01*
X-38401000Y-1303333D01*
X-38401000Y-1636666D01*
X-38334334Y-1770000D01*
X-38267667Y-1836666D01*
X-38134334Y-1903333D01*
X-37734334Y-1903333D01*
X-37601000Y-1836666D01*
X-37534334Y-1770000D01*
X-5474334Y18419667D02*
X-6407667Y18419667D01*
X-5807667Y17019667D01*
X-7541000Y17953000D02*
X-7541000Y17019667D01*
X-7207667Y18486334D02*
X-6874334Y17486334D01*
X-7741000Y17486334D01*
X-8941000Y18419667D02*
X-8274334Y18419667D01*
X-8207667Y17753000D01*
X-8274334Y17819667D01*
X-8407667Y17886334D01*
X-8741000Y17886334D01*
X-8874334Y17819667D01*
X-8941000Y17753000D01*
X-9007667Y17619667D01*
X-9007667Y17286334D01*
X-8941000Y17153000D01*
X-8874334Y17086334D01*
X-8741000Y17019667D01*
X-8407667Y17019667D01*
X-8274334Y17086334D01*
X-8207667Y17153000D01*
X-9674334Y17019667D02*
X-9941000Y17019667D01*
X-10074334Y17086334D01*
X-10141000Y17153000D01*
X-10274334Y17353000D01*
X-10341000Y17619667D01*
X-10341000Y18153000D01*
X-10274334Y18286334D01*
X-10207667Y18353000D01*
X-10074334Y18419667D01*
X-9807667Y18419667D01*
X-9674334Y18353000D01*
X-9607667Y18286334D01*
X-9541000Y18153000D01*
X-9541000Y17819667D01*
X-9607667Y17686334D01*
X-9674334Y17619667D01*
X-9807667Y17553000D01*
X-10074334Y17553000D01*
X-10207667Y17619667D01*
X-10274334Y17686334D01*
X-10341000Y17819667D01*
X-11607667Y18419667D02*
X-10941000Y18419667D01*
X-10874334Y17753000D01*
X-10941000Y17819667D01*
X-11074334Y17886334D01*
X-11407667Y17886334D01*
X-11541000Y17819667D01*
X-11607667Y17753000D01*
X-11674334Y17619667D01*
X-11674334Y17286334D01*
X-11607667Y17153000D01*
X-11541000Y17086334D01*
X-11407667Y17019667D01*
X-11074334Y17019667D01*
X-10941000Y17086334D01*
X-10874334Y17153000D01*
X-13341000Y18419667D02*
X-13341000Y17286334D01*
X-13407667Y17153000D01*
X-13474334Y17086334D01*
X-13607667Y17019667D01*
X-13874334Y17019667D01*
X-14007667Y17086334D01*
X-14074334Y17153000D01*
X-14141000Y17286334D01*
X-14141000Y18419667D01*
X-14741000Y18286334D02*
X-14807667Y18353000D01*
X-14941000Y18419667D01*
X-15274334Y18419667D01*
X-15407667Y18353000D01*
X-15474334Y18286334D01*
X-15541000Y18153000D01*
X-15541000Y18019667D01*
X-15474334Y17819667D01*
X-14674334Y17019667D01*
X-15541000Y17019667D01*
X-30874334Y18419667D02*
X-31807667Y18419667D01*
X-31207667Y17019667D01*
X-32941000Y17953000D02*
X-32941000Y17019667D01*
X-32607667Y18486334D02*
X-32274334Y17486334D01*
X-33141000Y17486334D01*
X-34341000Y18419667D02*
X-33674334Y18419667D01*
X-33607667Y17753000D01*
X-33674334Y17819667D01*
X-33807667Y17886334D01*
X-34141000Y17886334D01*
X-34274334Y17819667D01*
X-34341000Y17753000D01*
X-34407667Y17619667D01*
X-34407667Y17286334D01*
X-34341000Y17153000D01*
X-34274334Y17086334D01*
X-34141000Y17019667D01*
X-33807667Y17019667D01*
X-33674334Y17086334D01*
X-33607667Y17153000D01*
X-35074334Y17019667D02*
X-35341000Y17019667D01*
X-35474334Y17086334D01*
X-35541000Y17153000D01*
X-35674334Y17353000D01*
X-35741000Y17619667D01*
X-35741000Y18153000D01*
X-35674334Y18286334D01*
X-35607667Y18353000D01*
X-35474334Y18419667D01*
X-35207667Y18419667D01*
X-35074334Y18353000D01*
X-35007667Y18286334D01*
X-34941000Y18153000D01*
X-34941000Y17819667D01*
X-35007667Y17686334D01*
X-35074334Y17619667D01*
X-35207667Y17553000D01*
X-35474334Y17553000D01*
X-35607667Y17619667D01*
X-35674334Y17686334D01*
X-35741000Y17819667D01*
X-37007667Y18419667D02*
X-36341000Y18419667D01*
X-36274334Y17753000D01*
X-36341000Y17819667D01*
X-36474334Y17886334D01*
X-36807667Y17886334D01*
X-36941000Y17819667D01*
X-37007667Y17753000D01*
X-37074334Y17619667D01*
X-37074334Y17286334D01*
X-37007667Y17153000D01*
X-36941000Y17086334D01*
X-36807667Y17019667D01*
X-36474334Y17019667D01*
X-36341000Y17086334D01*
X-36274334Y17153000D01*
X-38741000Y18419667D02*
X-38741000Y17286334D01*
X-38807667Y17153000D01*
X-38874334Y17086334D01*
X-39007667Y17019667D01*
X-39274334Y17019667D01*
X-39407667Y17086334D01*
X-39474334Y17153000D01*
X-39541000Y17286334D01*
X-39541000Y18419667D01*
X-40141000Y18286334D02*
X-40207667Y18353000D01*
X-40341000Y18419667D01*
X-40674334Y18419667D01*
X-40807667Y18353000D01*
X-40874334Y18286334D01*
X-40941000Y18153000D01*
X-40941000Y18019667D01*
X-40874334Y17819667D01*
X-40074334Y17019667D01*
X-40941000Y17019667D01*
D11*
X49403000Y-26162000D02*
X49403000Y20955000D01*
D12*
X39751000Y-26162000D02*
X49403000Y-26162000D01*
X39751000Y-23241000D02*
X39751000Y-26162000D01*
D13*
X33755714Y36901429D02*
X32898571Y36901429D01*
X33327142Y35401429D02*
X33327142Y36901429D01*
X32398571Y36187143D02*
X31898571Y36187143D01*
X31684285Y35401429D02*
X32398571Y35401429D01*
X32398571Y36901429D01*
X31684285Y36901429D01*
X30184285Y35401429D02*
X30684285Y36115715D01*
X31041428Y35401429D02*
X31041428Y36901429D01*
X30470000Y36901429D01*
X30327142Y36830000D01*
X30255714Y36758572D01*
X30184285Y36615715D01*
X30184285Y36401429D01*
X30255714Y36258572D01*
X30327142Y36187143D01*
X30470000Y36115715D01*
X31041428Y36115715D01*
X29541428Y35401429D02*
X29541428Y36901429D01*
X29041428Y35830000D01*
X28541428Y36901429D01*
X28541428Y35401429D01*
X27541428Y36901429D02*
X27255714Y36901429D01*
X27112857Y36830000D01*
X26970000Y36687143D01*
X26898571Y36401429D01*
X26898571Y35901429D01*
X26970000Y35615715D01*
X27112857Y35472858D01*
X27255714Y35401429D01*
X27541428Y35401429D01*
X27684285Y35472858D01*
X27827142Y35615715D01*
X27898571Y35901429D01*
X27898571Y36401429D01*
X27827142Y36687143D01*
X27684285Y36830000D01*
X27541428Y36901429D01*
X26327142Y35472858D02*
X26112857Y35401429D01*
X25755714Y35401429D01*
X25612857Y35472858D01*
X25541428Y35544286D01*
X25470000Y35687143D01*
X25470000Y35830000D01*
X25541428Y35972858D01*
X25612857Y36044286D01*
X25755714Y36115715D01*
X26041428Y36187143D01*
X26184285Y36258572D01*
X26255714Y36330000D01*
X26327142Y36472858D01*
X26327142Y36615715D01*
X26255714Y36758572D01*
X26184285Y36830000D01*
X26041428Y36901429D01*
X25684285Y36901429D01*
X25470000Y36830000D01*
X25041428Y36901429D02*
X24184285Y36901429D01*
X24612857Y35401429D02*
X24612857Y36901429D01*
X23755714Y35830000D02*
X23041428Y35830000D01*
X23898571Y35401429D02*
X23398571Y36901429D01*
X22898571Y35401429D01*
X22612857Y36901429D02*
X21755714Y36901429D01*
X22184285Y35401429D02*
X22184285Y36901429D01*
X20970000Y36901429D02*
X20684285Y36901429D01*
X20541428Y36830000D01*
X20398571Y36687143D01*
X20327142Y36401429D01*
X20327142Y35901429D01*
X20398571Y35615715D01*
X20541428Y35472858D01*
X20684285Y35401429D01*
X20970000Y35401429D01*
X21112857Y35472858D01*
X21255714Y35615715D01*
X21327142Y35901429D01*
X21327142Y36401429D01*
X21255714Y36687143D01*
X21112857Y36830000D01*
X20970000Y36901429D01*
X18541428Y35401429D02*
X18541428Y36901429D01*
X18184285Y36901429D01*
X17970000Y36830000D01*
X17827142Y36687143D01*
X17755714Y36544286D01*
X17684285Y36258572D01*
X17684285Y36044286D01*
X17755714Y35758572D01*
X17827142Y35615715D01*
X17970000Y35472858D01*
X18184285Y35401429D01*
X18541428Y35401429D01*
X17041428Y35401429D02*
X17041428Y36901429D01*
X15827142Y36187143D02*
X16327142Y36187143D01*
X16327142Y35401429D02*
X16327142Y36901429D01*
X15612857Y36901429D01*
X15041428Y36187143D02*
X14541428Y36187143D01*
X14327142Y35401429D02*
X15041428Y35401429D01*
X15041428Y36901429D01*
X14327142Y36901429D01*
X12827142Y35401429D02*
X13327142Y36115715D01*
X13684285Y35401429D02*
X13684285Y36901429D01*
X13112857Y36901429D01*
X12970000Y36830000D01*
X12898571Y36758572D01*
X12827142Y36615715D01*
X12827142Y36401429D01*
X12898571Y36258572D01*
X12970000Y36187143D01*
X13112857Y36115715D01*
X13684285Y36115715D01*
X12184285Y36187143D02*
X11684285Y36187143D01*
X11470000Y35401429D02*
X12184285Y35401429D01*
X12184285Y36901429D01*
X11470000Y36901429D01*
X10827142Y35401429D02*
X10827142Y36901429D01*
X9970000Y35401429D01*
X9970000Y36901429D01*
X8398571Y35544286D02*
X8470000Y35472858D01*
X8684285Y35401429D01*
X8827142Y35401429D01*
X9041428Y35472858D01*
X9184285Y35615715D01*
X9255714Y35758572D01*
X9327142Y36044286D01*
X9327142Y36258572D01*
X9255714Y36544286D01*
X9184285Y36687143D01*
X9041428Y36830000D01*
X8827142Y36901429D01*
X8684285Y36901429D01*
X8470000Y36830000D01*
X8398571Y36758572D01*
X7755714Y35401429D02*
X7755714Y36901429D01*
X7112857Y35830000D02*
X6398571Y35830000D01*
X7255714Y35401429D02*
X6755714Y36901429D01*
X6255714Y35401429D01*
X5041428Y35401429D02*
X5755714Y35401429D01*
X5755714Y36901429D01*
X3398571Y35401429D02*
X3398571Y36901429D01*
X2898571Y35830000D01*
X2398571Y36901429D01*
X2398571Y35401429D01*
X1684285Y36187143D02*
X1184285Y36187143D01*
X970000Y35401429D02*
X1684285Y35401429D01*
X1684285Y36901429D01*
X970000Y36901429D01*
X-458572Y36830000D02*
X-315715Y36901429D01*
X-101429Y36901429D01*
X112857Y36830000D01*
X255714Y36687143D01*
X327142Y36544286D01*
X398571Y36258572D01*
X398571Y36044286D01*
X327142Y35758572D01*
X255714Y35615715D01*
X112857Y35472858D01*
X-101429Y35401429D01*
X-244286Y35401429D01*
X-458572Y35472858D01*
X-530000Y35544286D01*
X-530000Y36044286D01*
X-244286Y36044286D01*
X-1101429Y35830000D02*
X-1815715Y35830000D01*
X-958572Y35401429D02*
X-1458572Y36901429D01*
X-1958572Y35401429D01*
X-3530000Y36758572D02*
X-3601429Y36830000D01*
X-3744286Y36901429D01*
X-4101429Y36901429D01*
X-4244286Y36830000D01*
X-4315715Y36758572D01*
X-4387143Y36615715D01*
X-4387143Y36472858D01*
X-4315715Y36258572D01*
X-3458572Y35401429D01*
X-4387143Y35401429D01*
X-5315715Y36901429D02*
X-5458572Y36901429D01*
X-5601429Y36830000D01*
X-5672858Y36758572D01*
X-5744286Y36615715D01*
X-5815715Y36330000D01*
X-5815715Y35972858D01*
X-5744286Y35687143D01*
X-5672858Y35544286D01*
X-5601429Y35472858D01*
X-5458572Y35401429D01*
X-5315715Y35401429D01*
X-5172858Y35472858D01*
X-5101429Y35544286D01*
X-5030000Y35687143D01*
X-4958572Y35972858D01*
X-4958572Y36330000D01*
X-5030000Y36615715D01*
X-5101429Y36758572D01*
X-5172858Y36830000D01*
X-5315715Y36901429D01*
X-6387143Y36758572D02*
X-6458572Y36830000D01*
X-6601429Y36901429D01*
X-6958572Y36901429D01*
X-7101429Y36830000D01*
X-7172858Y36758572D01*
X-7244286Y36615715D01*
X-7244286Y36472858D01*
X-7172858Y36258572D01*
X-6315715Y35401429D01*
X-7244286Y35401429D01*
X-8672858Y35401429D02*
X-7815715Y35401429D01*
X-8244286Y35401429D02*
X-8244286Y36901429D01*
X-8101429Y36687143D01*
X-7958572Y36544286D01*
X-7815715Y36472858D01*
X24148571Y33422858D02*
X23005714Y33422858D01*
X21148571Y32851429D02*
X21148571Y34351429D01*
X20648571Y33280000D01*
X20148571Y34351429D01*
X20148571Y32851429D01*
X19434285Y32851429D02*
X19434285Y34351429D01*
X18791428Y32922858D02*
X18577142Y32851429D01*
X18220000Y32851429D01*
X18077142Y32922858D01*
X18005714Y32994286D01*
X17934285Y33137143D01*
X17934285Y33280000D01*
X18005714Y33422858D01*
X18077142Y33494286D01*
X18220000Y33565715D01*
X18505714Y33637143D01*
X18648571Y33708572D01*
X18720000Y33780000D01*
X18791428Y33922858D01*
X18791428Y34065715D01*
X18720000Y34208572D01*
X18648571Y34280000D01*
X18505714Y34351429D01*
X18148571Y34351429D01*
X17934285Y34280000D01*
X17005714Y34351429D02*
X16720000Y34351429D01*
X16577142Y34280000D01*
X16434285Y34137143D01*
X16362857Y33851429D01*
X16362857Y33351429D01*
X16434285Y33065715D01*
X16577142Y32922858D01*
X16720000Y32851429D01*
X17005714Y32851429D01*
X17148571Y32922858D01*
X17291428Y33065715D01*
X17362857Y33351429D01*
X17362857Y33851429D01*
X17291428Y34137143D01*
X17148571Y34280000D01*
X17005714Y34351429D01*
X15005714Y32851429D02*
X15720000Y32851429D01*
X15720000Y34351429D01*
X14577142Y33280000D02*
X13862857Y33280000D01*
X14720000Y32851429D02*
X14220000Y34351429D01*
X13720000Y32851429D01*
X12362857Y32851429D02*
X12862857Y33565715D01*
X13220000Y32851429D02*
X13220000Y34351429D01*
X12648571Y34351429D01*
X12505714Y34280000D01*
X12434285Y34208572D01*
X12362857Y34065715D01*
X12362857Y33851429D01*
X12434285Y33708572D01*
X12505714Y33637143D01*
X12648571Y33565715D01*
X13220000Y33565715D01*
X10862857Y32994286D02*
X10934285Y32922858D01*
X11148571Y32851429D01*
X11291428Y32851429D01*
X11505714Y32922858D01*
X11648571Y33065715D01*
X11720000Y33208572D01*
X11791428Y33494286D01*
X11791428Y33708572D01*
X11720000Y33994286D01*
X11648571Y34137143D01*
X11505714Y34280000D01*
X11291428Y34351429D01*
X11148571Y34351429D01*
X10934285Y34280000D01*
X10862857Y34208572D01*
X10291428Y33280000D02*
X9577142Y33280000D01*
X10434285Y32851429D02*
X9934285Y34351429D01*
X9434285Y32851429D01*
X9005714Y32922858D02*
X8791428Y32851429D01*
X8434285Y32851429D01*
X8291428Y32922858D01*
X8220000Y32994286D01*
X8148571Y33137143D01*
X8148571Y33280000D01*
X8220000Y33422858D01*
X8291428Y33494286D01*
X8434285Y33565715D01*
X8720000Y33637143D01*
X8862857Y33708572D01*
X8934285Y33780000D01*
X9005714Y33922858D01*
X9005714Y34065715D01*
X8934285Y34208572D01*
X8862857Y34280000D01*
X8720000Y34351429D01*
X8362857Y34351429D01*
X8148571Y34280000D01*
X7505714Y33637143D02*
X7005714Y33637143D01*
X6791428Y32851429D02*
X7505714Y32851429D01*
X7505714Y34351429D01*
X6791428Y34351429D01*
X5291428Y32851429D02*
X5791428Y33565715D01*
X6148571Y32851429D02*
X6148571Y34351429D01*
X5577142Y34351429D01*
X5434285Y34280000D01*
X5362857Y34208572D01*
X5291428Y34065715D01*
X5291428Y33851429D01*
X5362857Y33708572D01*
X5434285Y33637143D01*
X5577142Y33565715D01*
X6148571Y33565715D01*
X4362857Y34351429D02*
X4077142Y34351429D01*
X3934285Y34280000D01*
X3791428Y34137143D01*
X3720000Y33851429D01*
X3720000Y33351429D01*
X3791428Y33065715D01*
X3934285Y32922858D01*
X4077142Y32851429D01*
X4362857Y32851429D01*
X4505714Y32922858D01*
X4648571Y33065715D01*
X4720000Y33351429D01*
X4720000Y33851429D01*
X4648571Y34137143D01*
X4505714Y34280000D01*
X4362857Y34351429D01*
X1934285Y33422858D02*
X791428Y33422858D01*
X25648571Y30730000D02*
X24934285Y30730000D01*
X25791428Y30301429D02*
X25291428Y31801429D01*
X24791428Y30301429D01*
X24291428Y30301429D02*
X24291428Y31801429D01*
X23720000Y31801429D01*
X23577142Y31730000D01*
X23505714Y31658572D01*
X23434285Y31515715D01*
X23434285Y31301429D01*
X23505714Y31158572D01*
X23577142Y31087143D01*
X23720000Y31015715D01*
X24291428Y31015715D01*
X22862857Y30730000D02*
X22148571Y30730000D01*
X23005714Y30301429D02*
X22505714Y31801429D01*
X22005714Y30301429D01*
X20648571Y30444286D02*
X20720000Y30372858D01*
X20934285Y30301429D01*
X21077142Y30301429D01*
X21291428Y30372858D01*
X21434285Y30515715D01*
X21505714Y30658572D01*
X21577142Y30944286D01*
X21577142Y31158572D01*
X21505714Y31444286D01*
X21434285Y31587143D01*
X21291428Y31730000D01*
X21077142Y31801429D01*
X20934285Y31801429D01*
X20720000Y31730000D01*
X20648571Y31658572D01*
X20005714Y30301429D02*
X20005714Y31801429D01*
X20005714Y31087143D02*
X19148571Y31087143D01*
X19148571Y30301429D02*
X19148571Y31801429D01*
X18434285Y31087143D02*
X17934285Y31087143D01*
X17720000Y30301429D02*
X18434285Y30301429D01*
X18434285Y31801429D01*
X17720000Y31801429D01*
X16577142Y31087143D02*
X16362857Y31015715D01*
X16291428Y30944286D01*
X16220000Y30801429D01*
X16220000Y30587143D01*
X16291428Y30444286D01*
X16362857Y30372858D01*
X16505714Y30301429D01*
X17077142Y30301429D01*
X17077142Y31801429D01*
X16577142Y31801429D01*
X16434285Y31730000D01*
X16362857Y31658572D01*
X16291428Y31515715D01*
X16291428Y31372858D01*
X16362857Y31230000D01*
X16434285Y31158572D01*
X16577142Y31087143D01*
X17077142Y31087143D01*
X14720000Y30444286D02*
X14791428Y30372858D01*
X15005714Y30301429D01*
X15148571Y30301429D01*
X15362857Y30372858D01*
X15505714Y30515715D01*
X15577142Y30658572D01*
X15648571Y30944286D01*
X15648571Y31158572D01*
X15577142Y31444286D01*
X15505714Y31587143D01*
X15362857Y31730000D01*
X15148571Y31801429D01*
X15005714Y31801429D01*
X14791428Y31730000D01*
X14720000Y31658572D01*
X14077142Y30301429D02*
X14077142Y31801429D01*
X13220000Y30301429D01*
X13220000Y31801429D01*
X11577142Y31015715D02*
X11648571Y31087143D01*
X11791428Y31158572D01*
X11934285Y31158572D01*
X12077142Y31087143D01*
X12148571Y31015715D01*
X12220000Y30872858D01*
X12220000Y30730000D01*
X12148571Y30587143D01*
X12077142Y30515715D01*
X11934285Y30444286D01*
X11791428Y30444286D01*
X11648571Y30515715D01*
X11577142Y30587143D01*
X11577142Y31158572D02*
X11577142Y30587143D01*
X11505714Y30515715D01*
X11434285Y30515715D01*
X11291428Y30587143D01*
X11220000Y30730000D01*
X11220000Y31087143D01*
X11362857Y31301429D01*
X11577142Y31444286D01*
X11862857Y31515715D01*
X12148571Y31444286D01*
X12362857Y31301429D01*
X12505714Y31087143D01*
X12577142Y30801429D01*
X12505714Y30515715D01*
X12362857Y30301429D01*
X12148571Y30158572D01*
X11862857Y30087143D01*
X11577142Y30158572D01*
X11362857Y30301429D01*
X9791428Y31730000D02*
X9934285Y31801429D01*
X10148571Y31801429D01*
X10362857Y31730000D01*
X10505714Y31587143D01*
X10577142Y31444286D01*
X10648571Y31158572D01*
X10648571Y30944286D01*
X10577142Y30658572D01*
X10505714Y30515715D01*
X10362857Y30372858D01*
X10148571Y30301429D01*
X10005714Y30301429D01*
X9791428Y30372858D01*
X9720000Y30444286D01*
X9720000Y30944286D01*
X10005714Y30944286D01*
X9077142Y30301429D02*
X9077142Y31801429D01*
X8577142Y30730000D01*
X8077142Y31801429D01*
X8077142Y30301429D01*
X7434285Y30730000D02*
X6720000Y30730000D01*
X7577142Y30301429D02*
X7077142Y31801429D01*
X6577142Y30301429D01*
X6077142Y30301429D02*
X6077142Y31801429D01*
X4648571Y30301429D02*
X5362857Y30301429D01*
X5362857Y31801429D01*
X4148571Y30444286D02*
X4077142Y30372858D01*
X4148571Y30301429D01*
X4220000Y30372858D01*
X4148571Y30444286D01*
X4148571Y30301429D01*
X2577142Y30444286D02*
X2648571Y30372858D01*
X2862857Y30301429D01*
X3005714Y30301429D01*
X3220000Y30372858D01*
X3362857Y30515715D01*
X3434285Y30658572D01*
X3505714Y30944286D01*
X3505714Y31158572D01*
X3434285Y31444286D01*
X3362857Y31587143D01*
X3220000Y31730000D01*
X3005714Y31801429D01*
X2862857Y31801429D01*
X2648571Y31730000D01*
X2577142Y31658572D01*
X1648571Y31801429D02*
X1362857Y31801429D01*
X1220000Y31730000D01*
X1077142Y31587143D01*
X1005714Y31301429D01*
X1005714Y30801429D01*
X1077142Y30515715D01*
X1220000Y30372858D01*
X1362857Y30301429D01*
X1648571Y30301429D01*
X1791428Y30372858D01*
X1934285Y30515715D01*
X2005714Y30801429D01*
X2005714Y31301429D01*
X1934285Y31587143D01*
X1791428Y31730000D01*
X1648571Y31801429D01*
X362857Y30301429D02*
X362857Y31801429D01*
X-137143Y30730000D01*
X-637143Y31801429D01*
X-637143Y30301429D01*
D12*
X14765000Y-4414000D02*
X14765000Y-5748000D01*
X14765000Y-11225000D02*
X14765000Y-9224000D01*
X25493000Y-11225000D02*
X14765000Y-11225000D01*
X25493000Y-4414000D02*
X25493000Y-11225000D01*
X14765000Y-4414000D02*
X25493000Y-4414000D01*
D10*
X48291142Y-7451714D02*
X47376857Y-7451714D01*
X47834000Y-7908857D02*
X47834000Y-6994571D01*
X45891142Y-7451714D02*
X44976857Y-7451714D01*
X42862571Y-7908857D02*
X43548285Y-7908857D01*
X43205428Y-7908857D02*
X43205428Y-6708857D01*
X43319714Y-6880285D01*
X43434000Y-6994571D01*
X43548285Y-7051714D01*
X41719714Y-7908857D02*
X42405428Y-7908857D01*
X42062571Y-7908857D02*
X42062571Y-6708857D01*
X42176857Y-6880285D01*
X42291142Y-6994571D01*
X42405428Y-7051714D01*
X39662571Y-7908857D02*
X40348285Y-7908857D01*
X40005428Y-7908857D02*
X40005428Y-6708857D01*
X40119714Y-6880285D01*
X40234000Y-6994571D01*
X40348285Y-7051714D01*
X39205428Y-6823142D02*
X39148285Y-6766000D01*
X39034000Y-6708857D01*
X38748285Y-6708857D01*
X38634000Y-6766000D01*
X38576857Y-6823142D01*
X38519714Y-6937428D01*
X38519714Y-7051714D01*
X38576857Y-7223142D01*
X39262571Y-7908857D01*
X38519714Y-7908857D01*
X48316714Y-1990714D02*
X47402428Y-1990714D01*
X47859571Y-2447857D02*
X47859571Y-1533571D01*
X45916714Y-1990714D02*
X45002428Y-1990714D01*
X43459571Y-2447857D02*
X43231000Y-2447857D01*
X43116714Y-2390714D01*
X43059571Y-2333571D01*
X42945285Y-2162142D01*
X42888142Y-1933571D01*
X42888142Y-1476428D01*
X42945285Y-1362142D01*
X43002428Y-1305000D01*
X43116714Y-1247857D01*
X43345285Y-1247857D01*
X43459571Y-1305000D01*
X43516714Y-1362142D01*
X43573857Y-1476428D01*
X43573857Y-1762142D01*
X43516714Y-1876428D01*
X43459571Y-1933571D01*
X43345285Y-1990714D01*
X43116714Y-1990714D01*
X43002428Y-1933571D01*
X42945285Y-1876428D01*
X42888142Y-1762142D01*
X40831000Y-2447857D02*
X41516714Y-2447857D01*
X41173857Y-2447857D02*
X41173857Y-1247857D01*
X41288142Y-1419285D01*
X41402428Y-1533571D01*
X41516714Y-1590714D01*
X40088142Y-1247857D02*
X39973857Y-1247857D01*
X39859571Y-1305000D01*
X39802428Y-1362142D01*
X39745285Y-1476428D01*
X39688142Y-1705000D01*
X39688142Y-1990714D01*
X39745285Y-2219285D01*
X39802428Y-2333571D01*
X39859571Y-2390714D01*
X39973857Y-2447857D01*
X40088142Y-2447857D01*
X40202428Y-2390714D01*
X40259571Y-2333571D01*
X40316714Y-2219285D01*
X40373857Y-1990714D01*
X40373857Y-1705000D01*
X40316714Y-1476428D01*
X40259571Y-1362142D01*
X40202428Y-1305000D01*
X40088142Y-1247857D01*
X48291285Y3470286D02*
X47377000Y3470286D01*
X47834142Y3013143D02*
X47834142Y3927429D01*
X45891285Y3470286D02*
X44977000Y3470286D01*
X43605571Y4213143D02*
X42805571Y4213143D01*
X43319857Y3013143D01*
X41262714Y3698858D02*
X41377000Y3756000D01*
X41434142Y3813143D01*
X41491285Y3927429D01*
X41491285Y3984572D01*
X41434142Y4098858D01*
X41377000Y4156000D01*
X41262714Y4213143D01*
X41034142Y4213143D01*
X40919857Y4156000D01*
X40862714Y4098858D01*
X40805571Y3984572D01*
X40805571Y3927429D01*
X40862714Y3813143D01*
X40919857Y3756000D01*
X41034142Y3698858D01*
X41262714Y3698858D01*
X41377000Y3641715D01*
X41434142Y3584572D01*
X41491285Y3470286D01*
X41491285Y3241715D01*
X41434142Y3127429D01*
X41377000Y3070286D01*
X41262714Y3013143D01*
X41034142Y3013143D01*
X40919857Y3070286D01*
X40862714Y3127429D01*
X40805571Y3241715D01*
X40805571Y3470286D01*
X40862714Y3584572D01*
X40919857Y3641715D01*
X41034142Y3698858D01*
X48291285Y8931286D02*
X47377000Y8931286D01*
X47834142Y8474143D02*
X47834142Y9388429D01*
X45891285Y8931286D02*
X44977000Y8931286D01*
X42919857Y9674143D02*
X43491285Y9674143D01*
X43548428Y9102715D01*
X43491285Y9159858D01*
X43377000Y9217000D01*
X43091285Y9217000D01*
X42977000Y9159858D01*
X42919857Y9102715D01*
X42862714Y8988429D01*
X42862714Y8702715D01*
X42919857Y8588429D01*
X42977000Y8531286D01*
X43091285Y8474143D01*
X43377000Y8474143D01*
X43491285Y8531286D01*
X43548428Y8588429D01*
X40919857Y9674143D02*
X41148428Y9674143D01*
X41262714Y9617000D01*
X41319857Y9559858D01*
X41434142Y9388429D01*
X41491285Y9159858D01*
X41491285Y8702715D01*
X41434142Y8588429D01*
X41377000Y8531286D01*
X41262714Y8474143D01*
X41034142Y8474143D01*
X40919857Y8531286D01*
X40862714Y8588429D01*
X40805571Y8702715D01*
X40805571Y8988429D01*
X40862714Y9102715D01*
X40919857Y9159858D01*
X41034142Y9217000D01*
X41262714Y9217000D01*
X41377000Y9159858D01*
X41434142Y9102715D01*
X41491285Y8988429D01*
X48291285Y14392286D02*
X47377000Y14392286D01*
X47834142Y13935143D02*
X47834142Y14849429D01*
X45891285Y14392286D02*
X44977000Y14392286D01*
X43605571Y15135143D02*
X42862714Y15135143D01*
X43262714Y14678000D01*
X43091285Y14678000D01*
X42977000Y14620858D01*
X42919857Y14563715D01*
X42862714Y14449429D01*
X42862714Y14163715D01*
X42919857Y14049429D01*
X42977000Y13992286D01*
X43091285Y13935143D01*
X43434142Y13935143D01*
X43548428Y13992286D01*
X43605571Y14049429D01*
X40919857Y14735143D02*
X40919857Y13935143D01*
X41205571Y15192286D02*
X41491285Y14335143D01*
X40748428Y14335143D01*
D12*
X38100000Y24003000D02*
X37084000Y24892000D01*
X38100000Y24003000D02*
X37211000Y22987000D01*
X35941000Y24003000D02*
X38100000Y24003000D01*
X35941000Y24003000D02*
X35941000Y27305000D01*
D10*
X42522285Y28032143D02*
X42522285Y29232143D01*
X42065142Y29232143D01*
X41950857Y29175000D01*
X41893714Y29117858D01*
X41836571Y29003572D01*
X41836571Y28832143D01*
X41893714Y28717858D01*
X41950857Y28660715D01*
X42065142Y28603572D01*
X42522285Y28603572D01*
X41379428Y28375000D02*
X40808000Y28375000D01*
X41493714Y28032143D02*
X41093714Y29232143D01*
X40693714Y28032143D01*
X40293714Y28032143D02*
X40293714Y29232143D01*
X39608000Y28032143D01*
X39608000Y29232143D01*
X39208000Y29232143D02*
X38522285Y29232143D01*
X38865142Y28032143D02*
X38865142Y29232143D01*
X38179428Y28375000D02*
X37608000Y28375000D01*
X38293714Y28032143D02*
X37893714Y29232143D01*
X37493714Y28032143D01*
X36522285Y28032143D02*
X37093714Y28032143D01*
X37093714Y29232143D01*
X35550857Y28032143D02*
X36122285Y28032143D01*
X36122285Y29232143D01*
X35208000Y28375000D02*
X34636571Y28375000D01*
X35322285Y28032143D02*
X34922285Y29232143D01*
X34522285Y28032143D01*
X48235571Y26711286D02*
X47473666Y26711286D01*
X47854619Y26254143D02*
X47854619Y27168429D01*
X46235571Y26711286D02*
X45473666Y26711286D01*
X44283190Y26311286D02*
X44140333Y26254143D01*
X43902238Y26254143D01*
X43807000Y26311286D01*
X43759380Y26368429D01*
X43711761Y26482715D01*
X43711761Y26597000D01*
X43759380Y26711286D01*
X43807000Y26768429D01*
X43902238Y26825572D01*
X44092714Y26882715D01*
X44187952Y26939858D01*
X44235571Y26997000D01*
X44283190Y27111286D01*
X44283190Y27225572D01*
X44235571Y27339858D01*
X44187952Y27397000D01*
X44092714Y27454143D01*
X43854619Y27454143D01*
X43711761Y27397000D01*
X43283190Y26254143D02*
X43283190Y27454143D01*
X43045095Y27454143D01*
X42902238Y27397000D01*
X42807000Y27282715D01*
X42759380Y27168429D01*
X42711761Y26939858D01*
X42711761Y26768429D01*
X42759380Y26539858D01*
X42807000Y26425572D01*
X42902238Y26311286D01*
X43045095Y26254143D01*
X43283190Y26254143D01*
X42330809Y26597000D02*
X41854619Y26597000D01*
X42426047Y26254143D02*
X42092714Y27454143D01*
X41759380Y26254143D01*
X40711761Y26311286D02*
X40568904Y26254143D01*
X40330809Y26254143D01*
X40235571Y26311286D01*
X40187952Y26368429D01*
X40140333Y26482715D01*
X40140333Y26597000D01*
X40187952Y26711286D01*
X40235571Y26768429D01*
X40330809Y26825572D01*
X40521285Y26882715D01*
X40616523Y26939858D01*
X40664142Y26997000D01*
X40711761Y27111286D01*
X40711761Y27225572D01*
X40664142Y27339858D01*
X40616523Y27397000D01*
X40521285Y27454143D01*
X40283190Y27454143D01*
X40140333Y27397000D01*
X39711761Y26254143D02*
X39711761Y27454143D01*
X39473666Y27454143D01*
X39330809Y27397000D01*
X39235571Y27282715D01*
X39187952Y27168429D01*
X39140333Y26939858D01*
X39140333Y26768429D01*
X39187952Y26539858D01*
X39235571Y26425572D01*
X39330809Y26311286D01*
X39473666Y26254143D01*
X39711761Y26254143D01*
X38235571Y26254143D02*
X38711761Y26254143D01*
X38711761Y27454143D01*
X-22752000Y17019667D02*
X-21952000Y17019667D01*
X-22352000Y17019667D02*
X-22352000Y18419667D01*
X-22218667Y18219667D01*
X-22085334Y18086334D01*
X-21952000Y18019667D01*
X-43707000Y17019667D02*
X-42907000Y17019667D01*
X-43307000Y17019667D02*
X-43307000Y18419667D01*
X-43173667Y18219667D01*
X-43040334Y18086334D01*
X-42907000Y18019667D01*
D11*
X37182400Y9928100D02*
X49374400Y9928100D01*
D10*
X50000Y0D02*
G75*
G03*
X50000Y0I-50000J0D01*
G01*
X34581333Y-11647047D02*
X34581333Y-11028000D01*
X34209904Y-11770857D02*
X35509904Y-11337523D01*
X34209904Y-10904190D01*
X34209904Y-9728000D02*
X34828952Y-10161333D01*
X34209904Y-10470857D02*
X35509904Y-10470857D01*
X35509904Y-9975619D01*
X35448000Y-9851809D01*
X35386095Y-9789904D01*
X35262285Y-9728000D01*
X35076571Y-9728000D01*
X34952761Y-9789904D01*
X34890857Y-9851809D01*
X34828952Y-9975619D01*
X34828952Y-10470857D01*
X34209904Y-9170857D02*
X35509904Y-9170857D01*
X35509904Y-8861333D01*
X35448000Y-8675619D01*
X35324190Y-8551809D01*
X35200380Y-8489904D01*
X34952761Y-8428000D01*
X34767047Y-8428000D01*
X34519428Y-8489904D01*
X34395619Y-8551809D01*
X34271809Y-8675619D01*
X34209904Y-8861333D01*
X34209904Y-9170857D01*
X35509904Y-7870857D02*
X34457523Y-7870857D01*
X34333714Y-7808952D01*
X34271809Y-7747047D01*
X34209904Y-7623238D01*
X34209904Y-7375619D01*
X34271809Y-7251809D01*
X34333714Y-7189904D01*
X34457523Y-7128000D01*
X35509904Y-7128000D01*
X34209904Y-6508952D02*
X35509904Y-6508952D01*
X34209904Y-5889904D02*
X35509904Y-5889904D01*
X34209904Y-5147047D01*
X35509904Y-5147047D01*
X35509904Y-4280380D02*
X35509904Y-4032761D01*
X35448000Y-3908952D01*
X35324190Y-3785142D01*
X35076571Y-3723238D01*
X34643238Y-3723238D01*
X34395619Y-3785142D01*
X34271809Y-3908952D01*
X34209904Y-4032761D01*
X34209904Y-4280380D01*
X34271809Y-4404190D01*
X34395619Y-4528000D01*
X34643238Y-4589904D01*
X35076571Y-4589904D01*
X35324190Y-4528000D01*
X35448000Y-4404190D01*
X35509904Y-4280380D01*
X34209904Y-2175619D02*
X35509904Y-2175619D01*
X34581333Y-1742285D01*
X35509904Y-1308952D01*
X34209904Y-1308952D01*
X34890857Y-689904D02*
X34890857Y-256571D01*
X34209904Y-70857D02*
X34209904Y-689904D01*
X35509904Y-689904D01*
X35509904Y-70857D01*
X35448000Y1167239D02*
X35509904Y1043429D01*
X35509904Y857715D01*
X35448000Y672000D01*
X35324190Y548191D01*
X35200380Y486286D01*
X34952761Y424381D01*
X34767047Y424381D01*
X34519428Y486286D01*
X34395619Y548191D01*
X34271809Y672000D01*
X34209904Y857715D01*
X34209904Y981524D01*
X34271809Y1167239D01*
X34333714Y1229143D01*
X34767047Y1229143D01*
X34767047Y981524D01*
X34581333Y1724381D02*
X34581333Y2343429D01*
X34209904Y1600572D02*
X35509904Y2033905D01*
X34209904Y2467239D01*
X35386095Y2838667D02*
X35448000Y2900572D01*
X35509904Y3024381D01*
X35509904Y3333905D01*
X35448000Y3457715D01*
X35386095Y3519620D01*
X35262285Y3581524D01*
X35138476Y3581524D01*
X34952761Y3519620D01*
X34209904Y2776762D01*
X34209904Y3581524D01*
X35509904Y4757715D02*
X35509904Y4138667D01*
X34890857Y4076762D01*
X34952761Y4138667D01*
X35014666Y4262477D01*
X35014666Y4572000D01*
X34952761Y4695810D01*
X34890857Y4757715D01*
X34767047Y4819620D01*
X34457523Y4819620D01*
X34333714Y4757715D01*
X34271809Y4695810D01*
X34209904Y4572000D01*
X34209904Y4262477D01*
X34271809Y4138667D01*
X34333714Y4076762D01*
X35509904Y5933905D02*
X35509904Y5686286D01*
X35448000Y5562477D01*
X35386095Y5500572D01*
X35200380Y5376762D01*
X34952761Y5314858D01*
X34457523Y5314858D01*
X34333714Y5376762D01*
X34271809Y5438667D01*
X34209904Y5562477D01*
X34209904Y5810096D01*
X34271809Y5933905D01*
X34333714Y5995810D01*
X34457523Y6057715D01*
X34767047Y6057715D01*
X34890857Y5995810D01*
X34952761Y5933905D01*
X35014666Y5810096D01*
X35014666Y5562477D01*
X34952761Y5438667D01*
X34890857Y5376762D01*
X34767047Y5314858D01*
X35509904Y6862477D02*
X35509904Y6986286D01*
X35448000Y7110096D01*
X35386095Y7172000D01*
X35262285Y7233905D01*
X35014666Y7295810D01*
X34705142Y7295810D01*
X34457523Y7233905D01*
X34333714Y7172000D01*
X34271809Y7110096D01*
X34209904Y6986286D01*
X34209904Y6862477D01*
X34271809Y6738667D01*
X34333714Y6676762D01*
X34457523Y6614858D01*
X34705142Y6552953D01*
X35014666Y6552953D01*
X35262285Y6614858D01*
X35386095Y6676762D01*
X35448000Y6738667D01*
X35509904Y6862477D01*
X34209904Y8843429D02*
X35509904Y8843429D01*
X35509904Y9152953D01*
X35448000Y9338667D01*
X35324190Y9462477D01*
X35200380Y9524381D01*
X34952761Y9586286D01*
X34767047Y9586286D01*
X34519428Y9524381D01*
X34395619Y9462477D01*
X34271809Y9338667D01*
X34209904Y9152953D01*
X34209904Y8843429D01*
X34209904Y10143429D02*
X35509904Y10143429D01*
X35448000Y11443429D02*
X35509904Y11319620D01*
X35509904Y11133905D01*
X35448000Y10948191D01*
X35324190Y10824381D01*
X35200380Y10762477D01*
X34952761Y10700572D01*
X34767047Y10700572D01*
X34519428Y10762477D01*
X34395619Y10824381D01*
X34271809Y10948191D01*
X34209904Y11133905D01*
X34209904Y11257715D01*
X34271809Y11443429D01*
X34333714Y11505334D01*
X34767047Y11505334D01*
X34767047Y11257715D01*
X34209904Y12062477D02*
X35509904Y12062477D01*
X35509904Y12495810D02*
X35509904Y13238667D01*
X34209904Y12867239D02*
X35509904Y12867239D01*
X34581333Y13610096D02*
X34581333Y14229143D01*
X34209904Y13486286D02*
X35509904Y13919620D01*
X34209904Y14352953D01*
X34209904Y15405334D02*
X34209904Y14786286D01*
X35509904Y14786286D01*
X34209904Y16829143D02*
X35509904Y16829143D01*
X35509904Y17324381D01*
X35448000Y17448191D01*
X35386095Y17510096D01*
X35262285Y17572000D01*
X35076571Y17572000D01*
X34952761Y17510096D01*
X34890857Y17448191D01*
X34828952Y17324381D01*
X34828952Y16829143D01*
X34209904Y18129143D02*
X35509904Y18129143D01*
X34209904Y18748191D02*
X35509904Y18748191D01*
X34209904Y19491048D01*
X35509904Y19491048D01*
X34271809Y20048191D02*
X34209904Y20233905D01*
X34209904Y20543429D01*
X34271809Y20667239D01*
X34333714Y20729143D01*
X34457523Y20791048D01*
X34581333Y20791048D01*
X34705142Y20729143D01*
X34767047Y20667239D01*
X34828952Y20543429D01*
X34890857Y20295810D01*
X34952761Y20172000D01*
X35014666Y20110096D01*
X35138476Y20048191D01*
X35262285Y20048191D01*
X35386095Y20110096D01*
X35448000Y20172000D01*
X35509904Y20295810D01*
X35509904Y20605334D01*
X35448000Y20791048D01*
D11*
X28714200Y-31986800D02*
X28714200Y-36256800D01*
X-22105800Y-31966800D02*
X-22105800Y-36216800D01*
D10*
X-9944715Y-36362514D02*
X-10116143Y-36419657D01*
X-10401858Y-36419657D01*
X-10516143Y-36362514D01*
X-10573286Y-36305371D01*
X-10630429Y-36191085D01*
X-10630429Y-36076800D01*
X-10573286Y-35962514D01*
X-10516143Y-35905371D01*
X-10401858Y-35848228D01*
X-10173286Y-35791085D01*
X-10059000Y-35733942D01*
X-10001858Y-35676800D01*
X-9944715Y-35562514D01*
X-9944715Y-35448228D01*
X-10001858Y-35333942D01*
X-10059000Y-35276800D01*
X-10173286Y-35219657D01*
X-10459000Y-35219657D01*
X-10630429Y-35276800D01*
X-11373286Y-35219657D02*
X-11601858Y-35219657D01*
X-11716143Y-35276800D01*
X-11830429Y-35391085D01*
X-11887572Y-35619657D01*
X-11887572Y-36019657D01*
X-11830429Y-36248228D01*
X-11716143Y-36362514D01*
X-11601858Y-36419657D01*
X-11373286Y-36419657D01*
X-11259000Y-36362514D01*
X-11144715Y-36248228D01*
X-11087572Y-36019657D01*
X-11087572Y-35619657D01*
X-11144715Y-35391085D01*
X-11259000Y-35276800D01*
X-11373286Y-35219657D01*
X-12401858Y-36419657D02*
X-12401858Y-35219657D01*
X-13087572Y-36419657D01*
X-13087572Y-35219657D01*
X-13659000Y-36419657D02*
X-13659000Y-35219657D01*
X-13944715Y-35219657D01*
X-14116143Y-35276800D01*
X-14230429Y-35391085D01*
X-14287572Y-35505371D01*
X-14344715Y-35733942D01*
X-14344715Y-35905371D01*
X-14287572Y-36133942D01*
X-14230429Y-36248228D01*
X-14116143Y-36362514D01*
X-13944715Y-36419657D01*
X-13659000Y-36419657D01*
X-14801858Y-36076800D02*
X-15373286Y-36076800D01*
X-14687572Y-36419657D02*
X-15087572Y-35219657D01*
X-15487572Y-36419657D01*
X-16801858Y-36419657D02*
X-16801858Y-35219657D01*
X-17087572Y-35219657D01*
X-17259000Y-35276800D01*
X-17373286Y-35391085D01*
X-17430429Y-35505371D01*
X-17487572Y-35733942D01*
X-17487572Y-35905371D01*
X-17430429Y-36133942D01*
X-17373286Y-36248228D01*
X-17259000Y-36362514D01*
X-17087572Y-36419657D01*
X-16801858Y-36419657D01*
X-18001858Y-35791085D02*
X-18401858Y-35791085D01*
X-18573286Y-36419657D02*
X-18001858Y-36419657D01*
X-18001858Y-35219657D01*
X-18573286Y-35219657D01*
X-19087572Y-36419657D02*
X-19087572Y-35219657D01*
X-19544715Y-35219657D01*
X-19659000Y-35276800D01*
X-19716143Y-35333942D01*
X-19773286Y-35448228D01*
X-19773286Y-35619657D01*
X-19716143Y-35733942D01*
X-19659000Y-35791085D01*
X-19544715Y-35848228D01*
X-19087572Y-35848228D01*
D11*
X38934200Y-31966800D02*
X38935200Y-36286800D01*
D10*
X-25213286Y-36362514D02*
X-25384715Y-36419657D01*
X-25670429Y-36419657D01*
X-25784715Y-36362514D01*
X-25841858Y-36305371D01*
X-25899000Y-36191085D01*
X-25899000Y-36076800D01*
X-25841858Y-35962514D01*
X-25784715Y-35905371D01*
X-25670429Y-35848228D01*
X-25441858Y-35791085D01*
X-25327572Y-35733942D01*
X-25270429Y-35676800D01*
X-25213286Y-35562514D01*
X-25213286Y-35448228D01*
X-25270429Y-35333942D01*
X-25327572Y-35276800D01*
X-25441858Y-35219657D01*
X-25727572Y-35219657D01*
X-25899000Y-35276800D01*
X-26641858Y-35219657D02*
X-26870429Y-35219657D01*
X-26984715Y-35276800D01*
X-27099000Y-35391085D01*
X-27156143Y-35619657D01*
X-27156143Y-36019657D01*
X-27099000Y-36248228D01*
X-26984715Y-36362514D01*
X-26870429Y-36419657D01*
X-26641858Y-36419657D01*
X-26527572Y-36362514D01*
X-26413286Y-36248228D01*
X-26356143Y-36019657D01*
X-26356143Y-35619657D01*
X-26413286Y-35391085D01*
X-26527572Y-35276800D01*
X-26641858Y-35219657D01*
X-27670429Y-36419657D02*
X-27670429Y-35219657D01*
X-28356143Y-36419657D01*
X-28356143Y-35219657D01*
X-28927572Y-36419657D02*
X-28927572Y-35219657D01*
X-29213286Y-35219657D01*
X-29384715Y-35276800D01*
X-29499000Y-35391085D01*
X-29556143Y-35505371D01*
X-29613286Y-35733942D01*
X-29613286Y-35905371D01*
X-29556143Y-36133942D01*
X-29499000Y-36248228D01*
X-29384715Y-36362514D01*
X-29213286Y-36419657D01*
X-28927572Y-36419657D01*
X-30070429Y-36076800D02*
X-30641858Y-36076800D01*
X-29956143Y-36419657D02*
X-30356143Y-35219657D01*
X-30756143Y-36419657D01*
X-32756143Y-36305371D02*
X-32699000Y-36362514D01*
X-32527572Y-36419657D01*
X-32413286Y-36419657D01*
X-32241858Y-36362514D01*
X-32127572Y-36248228D01*
X-32070429Y-36133942D01*
X-32013286Y-35905371D01*
X-32013286Y-35733942D01*
X-32070429Y-35505371D01*
X-32127572Y-35391085D01*
X-32241858Y-35276800D01*
X-32413286Y-35219657D01*
X-32527572Y-35219657D01*
X-32699000Y-35276800D01*
X-32756143Y-35333942D01*
X-33499000Y-35219657D02*
X-33727572Y-35219657D01*
X-33841858Y-35276800D01*
X-33956143Y-35391085D01*
X-34013286Y-35619657D01*
X-34013286Y-36019657D01*
X-33956143Y-36248228D01*
X-33841858Y-36362514D01*
X-33727572Y-36419657D01*
X-33499000Y-36419657D01*
X-33384715Y-36362514D01*
X-33270429Y-36248228D01*
X-33213286Y-36019657D01*
X-33213286Y-35619657D01*
X-33270429Y-35391085D01*
X-33384715Y-35276800D01*
X-33499000Y-35219657D01*
X-35099000Y-36419657D02*
X-34527572Y-36419657D01*
X-34527572Y-35219657D01*
X26894200Y-34012514D02*
X25979914Y-34012514D01*
X26437057Y-34469657D02*
X26437057Y-33555371D01*
X25351342Y-34469657D02*
X25122771Y-34469657D01*
X25008485Y-34412514D01*
X24951342Y-34355371D01*
X24837057Y-34183942D01*
X24779914Y-33955371D01*
X24779914Y-33498228D01*
X24837057Y-33383942D01*
X24894200Y-33326800D01*
X25008485Y-33269657D01*
X25237057Y-33269657D01*
X25351342Y-33326800D01*
X25408485Y-33383942D01*
X25465628Y-33498228D01*
X25465628Y-33783942D01*
X25408485Y-33898228D01*
X25351342Y-33955371D01*
X25237057Y-34012514D01*
X25008485Y-34012514D01*
X24894200Y-33955371D01*
X24837057Y-33898228D01*
X24779914Y-33783942D01*
X22437057Y-34012514D02*
X21522771Y-34012514D01*
X19122771Y-33841085D02*
X18722771Y-33841085D01*
X18551342Y-34469657D02*
X19122771Y-34469657D01*
X19122771Y-33269657D01*
X18551342Y-33269657D01*
X17351342Y-34355371D02*
X17408485Y-34412514D01*
X17579914Y-34469657D01*
X17694200Y-34469657D01*
X17865628Y-34412514D01*
X17979914Y-34298228D01*
X18037057Y-34183942D01*
X18094200Y-33955371D01*
X18094200Y-33783942D01*
X18037057Y-33555371D01*
X17979914Y-33441085D01*
X17865628Y-33326800D01*
X17694200Y-33269657D01*
X17579914Y-33269657D01*
X17408485Y-33326800D01*
X17351342Y-33383942D01*
X16837057Y-34469657D02*
X16837057Y-33269657D01*
X16837057Y-33841085D02*
X16151342Y-33841085D01*
X16151342Y-34469657D02*
X16151342Y-33269657D01*
X15351342Y-33269657D02*
X15122771Y-33269657D01*
X15008485Y-33326800D01*
X14894200Y-33441085D01*
X14837057Y-33669657D01*
X14837057Y-34069657D01*
X14894200Y-34298228D01*
X15008485Y-34412514D01*
X15122771Y-34469657D01*
X15351342Y-34469657D01*
X15465628Y-34412514D01*
X15579914Y-34298228D01*
X15637057Y-34069657D01*
X15637057Y-33669657D01*
X15579914Y-33441085D01*
X15465628Y-33326800D01*
X15351342Y-33269657D01*
X13579914Y-33269657D02*
X12894200Y-33269657D01*
X13237057Y-34469657D02*
X13237057Y-33269657D01*
X11808485Y-34469657D02*
X12208485Y-33898228D01*
X12494200Y-34469657D02*
X12494200Y-33269657D01*
X12037057Y-33269657D01*
X11922771Y-33326800D01*
X11865628Y-33383942D01*
X11808485Y-33498228D01*
X11808485Y-33669657D01*
X11865628Y-33783942D01*
X11922771Y-33841085D01*
X12037057Y-33898228D01*
X12494200Y-33898228D01*
X11294200Y-34469657D02*
X11294200Y-33269657D01*
X10094200Y-33326800D02*
X10208485Y-33269657D01*
X10379914Y-33269657D01*
X10551342Y-33326800D01*
X10665628Y-33441085D01*
X10722771Y-33555371D01*
X10779914Y-33783942D01*
X10779914Y-33955371D01*
X10722771Y-34183942D01*
X10665628Y-34298228D01*
X10551342Y-34412514D01*
X10379914Y-34469657D01*
X10265628Y-34469657D01*
X10094200Y-34412514D01*
X10037057Y-34355371D01*
X10037057Y-33955371D01*
X10265628Y-33955371D01*
X38778857Y-34109000D02*
X38207428Y-34109000D01*
X38893142Y-34451857D02*
X38493142Y-33251857D01*
X38093142Y-34451857D01*
X37064571Y-33309000D02*
X37178857Y-33251857D01*
X37350285Y-33251857D01*
X37521714Y-33309000D01*
X37636000Y-33423285D01*
X37693142Y-33537571D01*
X37750285Y-33766142D01*
X37750285Y-33937571D01*
X37693142Y-34166142D01*
X37636000Y-34280428D01*
X37521714Y-34394714D01*
X37350285Y-34451857D01*
X37236000Y-34451857D01*
X37064571Y-34394714D01*
X37007428Y-34337571D01*
X37007428Y-33937571D01*
X37236000Y-33937571D01*
X36493142Y-33251857D02*
X36493142Y-34223285D01*
X36436000Y-34337571D01*
X36378857Y-34394714D01*
X36264571Y-34451857D01*
X36036000Y-34451857D01*
X35921714Y-34394714D01*
X35864571Y-34337571D01*
X35807428Y-34223285D01*
X35807428Y-33251857D01*
X35293142Y-34109000D02*
X34721714Y-34109000D01*
X35407428Y-34451857D02*
X35007428Y-33251857D01*
X34607428Y-34451857D01*
X33350285Y-34394714D02*
X33178857Y-34451857D01*
X32893142Y-34451857D01*
X32778857Y-34394714D01*
X32721714Y-34337571D01*
X32664571Y-34223285D01*
X32664571Y-34109000D01*
X32721714Y-33994714D01*
X32778857Y-33937571D01*
X32893142Y-33880428D01*
X33121714Y-33823285D01*
X33236000Y-33766142D01*
X33293142Y-33709000D01*
X33350285Y-33594714D01*
X33350285Y-33480428D01*
X33293142Y-33366142D01*
X33236000Y-33309000D01*
X33121714Y-33251857D01*
X32836000Y-33251857D01*
X32664571Y-33309000D01*
X32321714Y-33251857D02*
X31636000Y-33251857D01*
X31978857Y-34451857D02*
X31978857Y-33251857D01*
X31007428Y-33251857D02*
X30778857Y-33251857D01*
X30664571Y-33309000D01*
X30550285Y-33423285D01*
X30493142Y-33651857D01*
X30493142Y-34051857D01*
X30550285Y-34280428D01*
X30664571Y-34394714D01*
X30778857Y-34451857D01*
X31007428Y-34451857D01*
X31121714Y-34394714D01*
X31236000Y-34280428D01*
X31293142Y-34051857D01*
X31293142Y-33651857D01*
X31236000Y-33423285D01*
X31121714Y-33309000D01*
X31007428Y-33251857D01*
X29978857Y-34451857D02*
X29978857Y-33251857D01*
X29521714Y-33251857D01*
X29407428Y-33309000D01*
X29350285Y-33366142D01*
X29293142Y-33480428D01*
X29293142Y-33651857D01*
X29350285Y-33766142D01*
X29407428Y-33823285D01*
X29521714Y-33880428D01*
X29978857Y-33880428D01*
D11*
X-37385800Y-31966800D02*
X-37385800Y-36286800D01*
X-6855800Y-31966800D02*
X-6855800Y-36236800D01*
D10*
X7533428Y-36362514D02*
X7362000Y-36419657D01*
X7076285Y-36419657D01*
X6962000Y-36362514D01*
X6904857Y-36305371D01*
X6847714Y-36191085D01*
X6847714Y-36076800D01*
X6904857Y-35962514D01*
X6962000Y-35905371D01*
X7076285Y-35848228D01*
X7304857Y-35791085D01*
X7419142Y-35733942D01*
X7476285Y-35676800D01*
X7533428Y-35562514D01*
X7533428Y-35448228D01*
X7476285Y-35333942D01*
X7419142Y-35276800D01*
X7304857Y-35219657D01*
X7019142Y-35219657D01*
X6847714Y-35276800D01*
X6104857Y-35219657D02*
X5876285Y-35219657D01*
X5762000Y-35276800D01*
X5647714Y-35391085D01*
X5590571Y-35619657D01*
X5590571Y-36019657D01*
X5647714Y-36248228D01*
X5762000Y-36362514D01*
X5876285Y-36419657D01*
X6104857Y-36419657D01*
X6219142Y-36362514D01*
X6333428Y-36248228D01*
X6390571Y-36019657D01*
X6390571Y-35619657D01*
X6333428Y-35391085D01*
X6219142Y-35276800D01*
X6104857Y-35219657D01*
X5076285Y-36419657D02*
X5076285Y-35219657D01*
X4390571Y-36419657D01*
X4390571Y-35219657D01*
X3819142Y-36419657D02*
X3819142Y-35219657D01*
X3533428Y-35219657D01*
X3362000Y-35276800D01*
X3247714Y-35391085D01*
X3190571Y-35505371D01*
X3133428Y-35733942D01*
X3133428Y-35905371D01*
X3190571Y-36133942D01*
X3247714Y-36248228D01*
X3362000Y-36362514D01*
X3533428Y-36419657D01*
X3819142Y-36419657D01*
X2676285Y-36076800D02*
X2104857Y-36076800D01*
X2790571Y-36419657D02*
X2390571Y-35219657D01*
X1990571Y-36419657D01*
X790571Y-35219657D02*
X-9429Y-35219657D01*
X790571Y-36419657D01*
X-9429Y-36419657D01*
X-466572Y-35962514D02*
X-1380858Y-35962514D01*
X-1780858Y-35219657D02*
X-2466572Y-35219657D01*
X-2123715Y-36419657D02*
X-2123715Y-35219657D01*
X-2866572Y-35791085D02*
X-3266572Y-35791085D01*
X-3438000Y-36419657D02*
X-2866572Y-36419657D01*
X-2866572Y-35219657D01*
X-3438000Y-35219657D01*
X-4638000Y-36419657D02*
X-4238000Y-35848228D01*
X-3952286Y-36419657D02*
X-3952286Y-35219657D01*
X-4409429Y-35219657D01*
X-4523715Y-35276800D01*
X-4580858Y-35333942D01*
X-4638000Y-35448228D01*
X-4638000Y-35619657D01*
X-4580858Y-35733942D01*
X-4523715Y-35791085D01*
X-4409429Y-35848228D01*
X-3952286Y-35848228D01*
X-5152286Y-36419657D02*
X-5152286Y-35219657D01*
X-5552286Y-36076800D01*
X-5952286Y-35219657D01*
X-5952286Y-36419657D01*
X22899914Y-36419657D02*
X22899914Y-35219657D01*
X22214200Y-36419657D01*
X22214200Y-35219657D01*
X21642771Y-36419657D02*
X21642771Y-35219657D01*
X21242771Y-35219657D02*
X20842771Y-36419657D01*
X20442771Y-35219657D01*
X20042771Y-35791085D02*
X19642771Y-35791085D01*
X19471342Y-36419657D02*
X20042771Y-36419657D01*
X20042771Y-35219657D01*
X19471342Y-35219657D01*
X18385628Y-36419657D02*
X18957057Y-36419657D01*
X18957057Y-35219657D01*
X17128485Y-36076800D02*
X16557057Y-36076800D01*
X17242771Y-36419657D02*
X16842771Y-35219657D01*
X16442771Y-36419657D01*
X15414200Y-35276800D02*
X15528485Y-35219657D01*
X15699914Y-35219657D01*
X15871342Y-35276800D01*
X15985628Y-35391085D01*
X16042771Y-35505371D01*
X16099914Y-35733942D01*
X16099914Y-35905371D01*
X16042771Y-36133942D01*
X15985628Y-36248228D01*
X15871342Y-36362514D01*
X15699914Y-36419657D01*
X15585628Y-36419657D01*
X15414200Y-36362514D01*
X15357057Y-36305371D01*
X15357057Y-35905371D01*
X15585628Y-35905371D01*
X14842771Y-35219657D02*
X14842771Y-36191085D01*
X14785628Y-36305371D01*
X14728485Y-36362514D01*
X14614200Y-36419657D01*
X14385628Y-36419657D01*
X14271342Y-36362514D01*
X14214200Y-36305371D01*
X14157057Y-36191085D01*
X14157057Y-35219657D01*
X13642771Y-36076800D02*
X13071342Y-36076800D01*
X13757057Y-36419657D02*
X13357057Y-35219657D01*
X12957057Y-36419657D01*
D11*
X8404200Y-31966800D02*
X8404200Y-36246800D01*
D10*
X-30372715Y-23529857D02*
X-30372715Y-22329857D01*
X-30829858Y-22329857D01*
X-30944143Y-22387000D01*
X-31001286Y-22444142D01*
X-31058429Y-22558428D01*
X-31058429Y-22729857D01*
X-31001286Y-22844142D01*
X-30944143Y-22901285D01*
X-30829858Y-22958428D01*
X-30372715Y-22958428D01*
X-31572715Y-23529857D02*
X-31572715Y-22329857D01*
X-32144143Y-23529857D02*
X-32144143Y-22329857D01*
X-32829858Y-23529857D01*
X-32829858Y-22329857D01*
X-33344143Y-23472714D02*
X-33515572Y-23529857D01*
X-33801286Y-23529857D01*
X-33915572Y-23472714D01*
X-33972715Y-23415571D01*
X-34029858Y-23301285D01*
X-34029858Y-23187000D01*
X-33972715Y-23072714D01*
X-33915572Y-23015571D01*
X-33801286Y-22958428D01*
X-33572715Y-22901285D01*
X-33458429Y-22844142D01*
X-33401286Y-22787000D01*
X-33344143Y-22672714D01*
X-33344143Y-22558428D01*
X-33401286Y-22444142D01*
X-33458429Y-22387000D01*
X-33572715Y-22329857D01*
X-33858429Y-22329857D01*
X-34029858Y-22387000D01*
X-35458429Y-23529857D02*
X-35458429Y-22329857D01*
X-35915572Y-22329857D01*
X-36029858Y-22387000D01*
X-36087000Y-22444142D01*
X-36144143Y-22558428D01*
X-36144143Y-22729857D01*
X-36087000Y-22844142D01*
X-36029858Y-22901285D01*
X-35915572Y-22958428D01*
X-35458429Y-22958428D01*
X-36887000Y-22329857D02*
X-37115572Y-22329857D01*
X-37229858Y-22387000D01*
X-37344143Y-22501285D01*
X-37401286Y-22729857D01*
X-37401286Y-23129857D01*
X-37344143Y-23358428D01*
X-37229858Y-23472714D01*
X-37115572Y-23529857D01*
X-36887000Y-23529857D01*
X-36772715Y-23472714D01*
X-36658429Y-23358428D01*
X-36601286Y-23129857D01*
X-36601286Y-22729857D01*
X-36658429Y-22501285D01*
X-36772715Y-22387000D01*
X-36887000Y-22329857D01*
X-37801286Y-22329857D02*
X-38087000Y-23529857D01*
X-38315572Y-22672714D01*
X-38544143Y-23529857D01*
X-38829858Y-22329857D01*
X-39287000Y-22901285D02*
X-39687000Y-22901285D01*
X-39858429Y-23529857D02*
X-39287000Y-23529857D01*
X-39287000Y-22329857D01*
X-39858429Y-22329857D01*
X-41058429Y-23529857D02*
X-40658429Y-22958428D01*
X-40372715Y-23529857D02*
X-40372715Y-22329857D01*
X-40829858Y-22329857D01*
X-40944143Y-22387000D01*
X-41001286Y-22444142D01*
X-41058429Y-22558428D01*
X-41058429Y-22729857D01*
X-41001286Y-22844142D01*
X-40944143Y-22901285D01*
X-40829858Y-22958428D01*
X-40372715Y-22958428D01*
D12*
X-15875000Y-22479000D02*
X-15875000Y-19812000D01*
X5334000Y-22479000D02*
X-15875000Y-22479000D01*
X5334000Y-19812000D02*
X5334000Y-22479000D01*
X-15875000Y-19812000D02*
X5334000Y-19812000D01*
D11*
X37097400Y21010100D02*
X49403000Y21010100D01*
X37097400Y-23114000D02*
X37097400Y20959300D01*
D10*
X-7058715Y29957786D02*
X-7973000Y29957786D01*
X-8544429Y29957786D02*
X-9458715Y29957786D01*
X-10030143Y29957786D02*
X-10944429Y29957786D01*
X-11515858Y29957786D02*
X-12430143Y29957786D01*
X-13001572Y29957786D02*
X-13915858Y29957786D01*
X-14487286Y29957786D02*
X-15401572Y29957786D01*
X-15973000Y29957786D02*
X-16887286Y29957786D01*
X-17458715Y29957786D02*
X-18373001Y29957786D01*
X-19515858Y29500643D02*
X-18944429Y29500643D01*
X-18944429Y30700643D01*
X-19915858Y30129215D02*
X-20315858Y30129215D01*
X-20487286Y29500643D02*
X-19915858Y29500643D01*
X-19915858Y30700643D01*
X-20487286Y30700643D01*
X-21001572Y29500643D02*
X-21001572Y30700643D01*
X-21287286Y30700643D01*
X-21458715Y30643500D01*
X-21573001Y30529215D01*
X-21630143Y30414929D01*
X-21687286Y30186358D01*
X-21687286Y30014929D01*
X-21630143Y29786358D01*
X-21573001Y29672072D01*
X-21458715Y29557786D01*
X-21287286Y29500643D01*
X-21001572Y29500643D01*
X-22144429Y29557786D02*
X-22315858Y29500643D01*
X-22601572Y29500643D01*
X-22715858Y29557786D01*
X-22773001Y29614929D01*
X-22830143Y29729215D01*
X-22830143Y29843500D01*
X-22773001Y29957786D01*
X-22715858Y30014929D01*
X-22601572Y30072072D01*
X-22373001Y30129215D01*
X-22258715Y30186358D01*
X-22201572Y30243500D01*
X-22144429Y30357786D01*
X-22144429Y30472072D01*
X-22201572Y30586358D01*
X-22258715Y30643500D01*
X-22373001Y30700643D01*
X-22658715Y30700643D01*
X-22830143Y30643500D01*
X-23344429Y29957786D02*
X-24258715Y29957786D01*
X-24830143Y29957786D02*
X-25744429Y29957786D01*
X-26315858Y29957786D02*
X-27230143Y29957786D01*
X-27801572Y29957786D02*
X-28715858Y29957786D01*
X-29287286Y29957786D02*
X-30201572Y29957786D01*
X-30773001Y29957786D02*
X-31687286Y29957786D01*
X-32258715Y29957786D02*
X-33173001Y29957786D01*
X-33744429Y29957786D02*
X-34658715Y29957786D01*
X-35230143Y29957786D02*
X-36144429Y29957786D01*
X11928342Y-23201500D02*
X11356914Y-23201500D01*
X12042628Y-23544357D02*
X11642628Y-22344357D01*
X11242628Y-23544357D01*
X10671200Y-22858642D02*
X10785485Y-22801500D01*
X10842628Y-22744357D01*
X10899771Y-22630071D01*
X10899771Y-22572928D01*
X10842628Y-22458642D01*
X10785485Y-22401500D01*
X10671200Y-22344357D01*
X10442628Y-22344357D01*
X10328342Y-22401500D01*
X10271200Y-22458642D01*
X10214057Y-22572928D01*
X10214057Y-22630071D01*
X10271200Y-22744357D01*
X10328342Y-22801500D01*
X10442628Y-22858642D01*
X10671200Y-22858642D01*
X10785485Y-22915785D01*
X10842628Y-22972928D01*
X10899771Y-23087214D01*
X10899771Y-23315785D01*
X10842628Y-23430071D01*
X10785485Y-23487214D01*
X10671200Y-23544357D01*
X10442628Y-23544357D01*
X10328342Y-23487214D01*
X10271200Y-23430071D01*
X10214057Y-23315785D01*
X10214057Y-23087214D01*
X10271200Y-22972928D01*
X10328342Y-22915785D01*
X10442628Y-22858642D01*
X27866771Y-23201500D02*
X27295342Y-23201500D01*
X27981057Y-23544357D02*
X27581057Y-22344357D01*
X27181057Y-23544357D01*
X26152485Y-23544357D02*
X26838200Y-23544357D01*
X26495342Y-23544357D02*
X26495342Y-22344357D01*
X26609628Y-22515785D01*
X26723914Y-22630071D01*
X26838200Y-22687214D01*
X25066771Y-22344357D02*
X25638200Y-22344357D01*
X25695342Y-22915785D01*
X25638200Y-22858642D01*
X25523914Y-22801500D01*
X25238200Y-22801500D01*
X25123914Y-22858642D01*
X25066771Y-22915785D01*
X25009628Y-23030071D01*
X25009628Y-23315785D01*
X25066771Y-23430071D01*
X25123914Y-23487214D01*
X25238200Y-23544357D01*
X25523914Y-23544357D01*
X25638200Y-23487214D01*
X25695342Y-23430071D01*
X-26822429Y-22344357D02*
X-26251000Y-22344357D01*
X-26193858Y-22915785D01*
X-26251000Y-22858642D01*
X-26365286Y-22801500D01*
X-26651000Y-22801500D01*
X-26765286Y-22858642D01*
X-26822429Y-22915785D01*
X-26879572Y-23030071D01*
X-26879572Y-23315785D01*
X-26822429Y-23430071D01*
X-26765286Y-23487214D01*
X-26651000Y-23544357D01*
X-26365286Y-23544357D01*
X-26251000Y-23487214D01*
X-26193858Y-23430071D01*
X-27222429Y-22344357D02*
X-27622429Y-23544357D01*
X-28022429Y-22344357D01*
X-22936715Y-22401500D02*
X-22822429Y-22344357D01*
X-22651000Y-22344357D01*
X-22479572Y-22401500D01*
X-22365286Y-22515785D01*
X-22308143Y-22630071D01*
X-22251000Y-22858642D01*
X-22251000Y-23030071D01*
X-22308143Y-23258642D01*
X-22365286Y-23372928D01*
X-22479572Y-23487214D01*
X-22651000Y-23544357D01*
X-22765286Y-23544357D01*
X-22936715Y-23487214D01*
X-22993858Y-23430071D01*
X-22993858Y-23030071D01*
X-22765286Y-23030071D01*
X-23508143Y-23544357D02*
X-23508143Y-22344357D01*
X-24193858Y-23544357D01*
X-24193858Y-22344357D01*
X-24765286Y-23544357D02*
X-24765286Y-22344357D01*
X-25051000Y-22344357D01*
X-25222429Y-22401500D01*
X-25336715Y-22515785D01*
X-25393858Y-22630071D01*
X-25451000Y-22858642D01*
X-25451000Y-23030071D01*
X-25393858Y-23258642D01*
X-25336715Y-23372928D01*
X-25222429Y-23487214D01*
X-25051000Y-23544357D01*
X-24765286Y-23544357D01*
X-17126143Y-23072714D02*
X-18040429Y-23072714D01*
X-17583286Y-23529857D02*
X-17583286Y-22615571D01*
X-18669000Y-23529857D02*
X-18897572Y-23529857D01*
X-19011858Y-23472714D01*
X-19069000Y-23415571D01*
X-19183286Y-23244142D01*
X-19240429Y-23015571D01*
X-19240429Y-22558428D01*
X-19183286Y-22444142D01*
X-19126143Y-22387000D01*
X-19011858Y-22329857D01*
X-18783286Y-22329857D01*
X-18669000Y-22387000D01*
X-18611858Y-22444142D01*
X-18554715Y-22558428D01*
X-18554715Y-22844142D01*
X-18611858Y-22958428D01*
X-18669000Y-23015571D01*
X-18783286Y-23072714D01*
X-19011858Y-23072714D01*
X-19126143Y-23015571D01*
X-19183286Y-22958428D01*
X-19240429Y-22844142D01*
X-19583286Y-22329857D02*
X-19983286Y-23529857D01*
X-20383286Y-22329857D01*
D11*
X37182400Y-17376900D02*
X49374400Y-17376900D01*
X37182400Y-11915900D02*
X49374400Y-11915900D01*
X37084000Y-6454900D02*
X49374400Y-6454900D01*
X37084000Y-993900D02*
X49374400Y-993900D01*
X37097400Y4445000D02*
X49374400Y4467100D01*
X37182400Y15389100D02*
X49374400Y15389100D01*
X49403000Y-23189900D02*
X37107400Y-23189900D01*
D12*
X-23038429Y453572D02*
X-22695572Y453572D01*
X-22867000Y453572D02*
X-22867000Y1053572D01*
X-22809858Y967858D01*
X-22752715Y910715D01*
X-22695572Y882143D01*
D10*
X13658571Y22395715D02*
X13487142Y22338572D01*
X13430000Y22281429D01*
X13372857Y22167143D01*
X13372857Y21995715D01*
X13430000Y21881429D01*
X13487142Y21824286D01*
X13601428Y21767143D01*
X14058571Y21767143D01*
X14058571Y22967143D01*
X13658571Y22967143D01*
X13544285Y22910000D01*
X13487142Y22852858D01*
X13430000Y22738572D01*
X13430000Y22624286D01*
X13487142Y22510000D01*
X13544285Y22452858D01*
X13658571Y22395715D01*
X14058571Y22395715D01*
X12858571Y22967143D02*
X12858571Y21995715D01*
X12801428Y21881429D01*
X12744285Y21824286D01*
X12630000Y21767143D01*
X12401428Y21767143D01*
X12287142Y21824286D01*
X12230000Y21881429D01*
X12172857Y21995715D01*
X12172857Y22967143D01*
X11715714Y22967143D02*
X10915714Y22967143D01*
X11715714Y21767143D01*
X10915714Y21767143D01*
X10572857Y22967143D02*
X9772857Y22967143D01*
X10572857Y21767143D01*
X9772857Y21767143D01*
X9315714Y22395715D02*
X8915714Y22395715D01*
X8744285Y21767143D02*
X9315714Y21767143D01*
X9315714Y22967143D01*
X8744285Y22967143D01*
X7544285Y21767143D02*
X7944285Y22338572D01*
X8230000Y21767143D02*
X8230000Y22967143D01*
X7772857Y22967143D01*
X7658571Y22910000D01*
X7601428Y22852858D01*
X7544285Y22738572D01*
X7544285Y22567143D01*
X7601428Y22452858D01*
X7658571Y22395715D01*
X7772857Y22338572D01*
X8230000Y22338572D01*
X48291285Y19980286D02*
X47377000Y19980286D01*
X47834142Y19523143D02*
X47834142Y20437429D01*
X45891285Y19980286D02*
X44977000Y19980286D01*
X42862714Y19523143D02*
X43548428Y19523143D01*
X43205571Y19523143D02*
X43205571Y20723143D01*
X43319857Y20551715D01*
X43434142Y20437429D01*
X43548428Y20380286D01*
X41491285Y20608858D02*
X41434142Y20666000D01*
X41319857Y20723143D01*
X41034142Y20723143D01*
X40919857Y20666000D01*
X40862714Y20608858D01*
X40805571Y20494572D01*
X40805571Y20380286D01*
X40862714Y20208858D01*
X41548428Y19523143D01*
X40805571Y19523143D01*
X4860700Y-21324000D02*
X4289271Y-21324000D01*
X4974985Y-21666857D02*
X4574985Y-20466857D01*
X4174985Y-21666857D01*
X3946414Y-20466857D02*
X3260700Y-20466857D01*
X3603557Y-21666857D02*
X3603557Y-20466857D01*
X2174985Y-21666857D02*
X2574985Y-21095428D01*
X2860700Y-21666857D02*
X2860700Y-20466857D01*
X2403557Y-20466857D01*
X2289271Y-20524000D01*
X2232128Y-20581142D01*
X2174985Y-20695428D01*
X2174985Y-20866857D01*
X2232128Y-20981142D01*
X2289271Y-21038285D01*
X2403557Y-21095428D01*
X2860700Y-21095428D01*
X1717842Y-21324000D02*
X1146414Y-21324000D01*
X1832128Y-21666857D02*
X1432128Y-20466857D01*
X1032128Y-21666857D01*
X689271Y-21609714D02*
X517842Y-21666857D01*
X232128Y-21666857D01*
X117842Y-21609714D01*
X60700Y-21552571D01*
X3557Y-21438285D01*
X3557Y-21324000D01*
X60700Y-21209714D01*
X117842Y-21152571D01*
X232128Y-21095428D01*
X460700Y-21038285D01*
X574985Y-20981142D01*
X632128Y-20924000D01*
X689271Y-20809714D01*
X689271Y-20695428D01*
X632128Y-20581142D01*
X574985Y-20524000D01*
X460700Y-20466857D01*
X174985Y-20466857D01*
X3557Y-20524000D01*
X-1767872Y-22124000D02*
X-1710729Y-22066857D01*
X-1596443Y-21895428D01*
X-1539300Y-21781142D01*
X-1482158Y-21609714D01*
X-1425015Y-21324000D01*
X-1425015Y-21095428D01*
X-1482158Y-20809714D01*
X-1539300Y-20638285D01*
X-1596443Y-20524000D01*
X-1710729Y-20352571D01*
X-1767872Y-20295428D01*
X-2910729Y-21552571D02*
X-2853586Y-21609714D01*
X-2682158Y-21666857D01*
X-2567872Y-21666857D01*
X-2396443Y-21609714D01*
X-2282158Y-21495428D01*
X-2225015Y-21381142D01*
X-2167872Y-21152571D01*
X-2167872Y-20981142D01*
X-2225015Y-20752571D01*
X-2282158Y-20638285D01*
X-2396443Y-20524000D01*
X-2567872Y-20466857D01*
X-2682158Y-20466857D01*
X-2853586Y-20524000D01*
X-2910729Y-20581142D01*
X-3653586Y-20466857D02*
X-3882158Y-20466857D01*
X-3996443Y-20524000D01*
X-4110729Y-20638285D01*
X-4167872Y-20866857D01*
X-4167872Y-21266857D01*
X-4110729Y-21495428D01*
X-3996443Y-21609714D01*
X-3882158Y-21666857D01*
X-3653586Y-21666857D01*
X-3539300Y-21609714D01*
X-3425015Y-21495428D01*
X-3367872Y-21266857D01*
X-3367872Y-20866857D01*
X-3425015Y-20638285D01*
X-3539300Y-20524000D01*
X-3653586Y-20466857D01*
X-4682158Y-21666857D02*
X-4682158Y-20466857D01*
X-5082158Y-21324000D01*
X-5482158Y-20466857D01*
X-5482158Y-21666857D01*
X-6053586Y-21666857D02*
X-6053586Y-20466857D01*
X-6510729Y-20466857D01*
X-6625015Y-20524000D01*
X-6682158Y-20581142D01*
X-6739300Y-20695428D01*
X-6739300Y-20866857D01*
X-6682158Y-20981142D01*
X-6625015Y-21038285D01*
X-6510729Y-21095428D01*
X-6053586Y-21095428D01*
X-7482158Y-20466857D02*
X-7710729Y-20466857D01*
X-7825015Y-20524000D01*
X-7939300Y-20638285D01*
X-7996443Y-20866857D01*
X-7996443Y-21266857D01*
X-7939300Y-21495428D01*
X-7825015Y-21609714D01*
X-7710729Y-21666857D01*
X-7482158Y-21666857D01*
X-7367872Y-21609714D01*
X-7253586Y-21495428D01*
X-7196443Y-21266857D01*
X-7196443Y-20866857D01*
X-7253586Y-20638285D01*
X-7367872Y-20524000D01*
X-7482158Y-20466857D01*
X-8510729Y-21666857D02*
X-8510729Y-20466857D01*
X-9196443Y-21666857D01*
X-9196443Y-20466857D01*
X-9767872Y-21038285D02*
X-10167872Y-21038285D01*
X-10339300Y-21666857D02*
X-9767872Y-21666857D01*
X-9767872Y-20466857D01*
X-10339300Y-20466857D01*
X-10853586Y-21666857D02*
X-10853586Y-20466857D01*
X-11539300Y-21666857D01*
X-11539300Y-20466857D01*
X-11939300Y-20466857D02*
X-12625015Y-20466857D01*
X-12282158Y-21666857D02*
X-12282158Y-20466857D01*
X-13025015Y-21038285D02*
X-13425015Y-21038285D01*
X-13596443Y-21666857D02*
X-13025015Y-21666857D01*
X-13025015Y-20466857D01*
X-13596443Y-20466857D01*
X-14053586Y-21609714D02*
X-14225015Y-21666857D01*
X-14510729Y-21666857D01*
X-14625015Y-21609714D01*
X-14682158Y-21552571D01*
X-14739300Y-21438285D01*
X-14739300Y-21324000D01*
X-14682158Y-21209714D01*
X-14625015Y-21152571D01*
X-14510729Y-21095428D01*
X-14282158Y-21038285D01*
X-14167872Y-20981142D01*
X-14110729Y-20924000D01*
X-14053586Y-20809714D01*
X-14053586Y-20695428D01*
X-14110729Y-20581142D01*
X-14167872Y-20524000D01*
X-14282158Y-20466857D01*
X-14567872Y-20466857D01*
X-14739300Y-20524000D01*
X-15139300Y-22124000D02*
X-15196443Y-22066857D01*
X-15310729Y-21895428D01*
X-15367872Y-21781142D01*
X-15425015Y-21609714D01*
X-15482158Y-21324000D01*
X-15482158Y-21095428D01*
X-15425015Y-20809714D01*
X-15367872Y-20638285D01*
X-15310729Y-20524000D01*
X-15196443Y-20352571D01*
X-15139300Y-20295428D01*
D14*
%TO.C,RELE-3-4*%
X38856400Y-16788900D02*
X38856400Y-14128900D01*
X46536400Y-16788900D02*
X38856400Y-16788900D01*
X46536400Y-14128900D02*
X38856400Y-14128900D01*
X46536400Y-16788900D02*
X46536400Y-14128900D01*
X47806400Y-16788900D02*
X49136400Y-16788900D01*
X49136400Y-16788900D02*
X49136400Y-15458900D01*
%TO.C,RELE-1-2*%
X38856400Y-22249900D02*
X38856400Y-19589900D01*
X46536400Y-22249900D02*
X38856400Y-22249900D01*
X46536400Y-19589900D02*
X38856400Y-19589900D01*
X46536400Y-22249900D02*
X46536400Y-19589900D01*
X47806400Y-22249900D02*
X49136400Y-22249900D01*
X49136400Y-22249900D02*
X49136400Y-20919900D01*
%TO.C,PINS5*%
X-678800Y28933500D02*
X-678800Y26273500D01*
X-18518800Y28933500D02*
X-678800Y28933500D01*
X-18518800Y26273500D02*
X-678800Y26273500D01*
X-18518800Y28933500D02*
X-18518800Y26273500D01*
X-19788800Y28933500D02*
X-21118800Y28933500D01*
X-21118800Y28933500D02*
X-21118800Y27603500D01*
%TO.C,RELE-5-6*%
X38856400Y-11327900D02*
X38856400Y-8667900D01*
X46536400Y-11327900D02*
X38856400Y-11327900D01*
X46536400Y-8667900D02*
X38856400Y-8667900D01*
X46536400Y-11327900D02*
X46536400Y-8667900D01*
X47806400Y-11327900D02*
X49136400Y-11327900D01*
X49136400Y-11327900D02*
X49136400Y-9997900D01*
%TO.C,RKC1*%
X24307000Y-8940064D02*
X24307000Y-7485936D01*
X22487000Y-8940064D02*
X22487000Y-7485936D01*
%TO.C,RKC2*%
X21259000Y-8940064D02*
X21259000Y-7485936D01*
X19439000Y-8940064D02*
X19439000Y-7485936D01*
%TO.C,RKO1*%
X16391000Y-8940064D02*
X16391000Y-7485936D01*
X18211000Y-8940064D02*
X18211000Y-7485936D01*
%TO.C,PINS3*%
X7181200Y-19151500D02*
X7181200Y-20481500D01*
X8511200Y-19151500D02*
X7181200Y-19151500D01*
X9781200Y-19151500D02*
X9781200Y-21811500D01*
X9781200Y-21811500D02*
X27621200Y-21811500D01*
X9781200Y-19151500D02*
X27621200Y-19151500D01*
X27621200Y-19151500D02*
X27621200Y-21811500D01*
%TO.C,PINS1*%
X-38418800Y-19151500D02*
X-38418800Y-20481500D01*
X-37088800Y-19151500D02*
X-38418800Y-19151500D01*
X-35818800Y-19151500D02*
X-35818800Y-21811500D01*
X-35818800Y-21811500D02*
X-17978800Y-21811500D01*
X-35818800Y-19151500D02*
X-17978800Y-19151500D01*
X-17978800Y-19151500D02*
X-17978800Y-21811500D01*
%TO.C,RELE-7-8*%
X38856400Y-5866900D02*
X38856400Y-3206900D01*
X46536400Y-5866900D02*
X38856400Y-5866900D01*
X46536400Y-3206900D02*
X38856400Y-3206900D01*
X46536400Y-5866900D02*
X46536400Y-3206900D01*
X47806400Y-5866900D02*
X49136400Y-5866900D01*
X49136400Y-5866900D02*
X49136400Y-4536900D01*
%TO.C,RELE-9-10*%
X38856400Y-405900D02*
X38856400Y2254100D01*
X46536400Y-405900D02*
X38856400Y-405900D01*
X46536400Y2254100D02*
X38856400Y2254100D01*
X46536400Y-405900D02*
X46536400Y2254100D01*
X47806400Y-405900D02*
X49136400Y-405900D01*
X49136400Y-405900D02*
X49136400Y924100D01*
%TO.C,PANTALLA1*%
X49075400Y25367100D02*
X49075400Y22707100D01*
X41395400Y25367100D02*
X49075400Y25367100D01*
X41395400Y22707100D02*
X49075400Y22707100D01*
X41395400Y25367100D02*
X41395400Y22707100D01*
X40125400Y25367100D02*
X38795400Y25367100D01*
X38795400Y25367100D02*
X38795400Y24037100D01*
%TO.C,RELE-15-16*%
X38856400Y15977100D02*
X38856400Y18637100D01*
X46536400Y15977100D02*
X38856400Y15977100D01*
X46536400Y18637100D02*
X38856400Y18637100D01*
X46536400Y15977100D02*
X46536400Y18637100D01*
X47806400Y15977100D02*
X49136400Y15977100D01*
X49136400Y15977100D02*
X49136400Y17307100D01*
%TO.C,RELE-13-14*%
X38856400Y10516100D02*
X38856400Y13176100D01*
X46536400Y10516100D02*
X38856400Y10516100D01*
X46536400Y13176100D02*
X38856400Y13176100D01*
X46536400Y10516100D02*
X46536400Y13176100D01*
X47806400Y10516100D02*
X49136400Y10516100D01*
X49136400Y10516100D02*
X49136400Y11846100D01*
%TO.C,RELE-11-12*%
X38856400Y5055100D02*
X38856400Y7715100D01*
X46536400Y5055100D02*
X38856400Y5055100D01*
X46536400Y7715100D02*
X38856400Y7715100D01*
X46536400Y5055100D02*
X46536400Y7715100D01*
X47806400Y5055100D02*
X49136400Y5055100D01*
X49136400Y5055100D02*
X49136400Y6385100D01*
%TO.C,PIN10*%
X32740000Y-16860000D02*
X27540000Y-16860000D01*
X32740000Y26380000D02*
X32740000Y-16860000D01*
X27540000Y28980000D02*
X27540000Y-16860000D01*
X32740000Y26380000D02*
X30140000Y26380000D01*
X30140000Y26380000D02*
X30140000Y28980000D01*
X30140000Y28980000D02*
X27540000Y28980000D01*
X32740000Y27650000D02*
X32740000Y28980000D01*
X32740000Y28980000D02*
X31410000Y28980000D01*
%TO.C,PINS6*%
X22191200Y28933500D02*
X22191200Y26273500D01*
X4351200Y28933500D02*
X22191200Y28933500D01*
X4351200Y26273500D02*
X22191200Y26273500D01*
X4351200Y28933500D02*
X4351200Y26273500D01*
X3081200Y28933500D02*
X1751200Y28933500D01*
X1751200Y28933500D02*
X1751200Y27603500D01*
%TO.C,PINS4*%
X-22388800Y28938500D02*
X-22388800Y26278500D01*
X-40228800Y28938500D02*
X-22388800Y28938500D01*
X-40228800Y26278500D02*
X-22388800Y26278500D01*
X-40228800Y28938500D02*
X-40228800Y26278500D01*
X-41498800Y28938500D02*
X-42828800Y28938500D01*
X-42828800Y28938500D02*
X-42828800Y27608500D01*
%TO.C,U3*%
X-22965800Y-3073400D02*
X-22965800Y-17573400D01*
X-43525800Y-3073400D02*
X-22965800Y-3073400D01*
X-43525800Y-17573400D02*
X-43525800Y-3073400D01*
X-22965800Y-17573400D02*
X-43525800Y-17573400D01*
X-23075800Y-7768400D02*
X-23075800Y-9303400D01*
X-43515800Y-7768400D02*
X-23075800Y-7768400D01*
X-43515800Y-12838400D02*
X-43515800Y-7768400D01*
X-23075800Y-12838400D02*
X-43515800Y-12838400D01*
X-23075800Y-11303400D02*
X-23075800Y-12838400D01*
X-23075800Y-9303400D02*
G75*
G03*
X-23075800Y-11303400I0J-1000000D01*
G01*
%TO.C,U2*%
X-23500600Y9003900D02*
X-23500600Y10538900D01*
X-23500600Y10538900D02*
X-3060600Y10538900D01*
X-3060600Y10538900D02*
X-3060600Y5468900D01*
X-3060600Y5468900D02*
X-23500600Y5468900D01*
X-23500600Y5468900D02*
X-23500600Y7003900D01*
X-23610600Y15273900D02*
X-3050600Y15273900D01*
X-3050600Y15273900D02*
X-3050600Y773900D01*
X-3050600Y773900D02*
X-23610600Y773900D01*
X-23610600Y773900D02*
X-23610600Y15273900D01*
X-23500600Y7003900D02*
G75*
G03*
X-23500600Y9003900I0J1000000D01*
G01*
%TO.C,U1*%
X-44709600Y9054700D02*
X-44709600Y10589700D01*
X-44709600Y10589700D02*
X-24269600Y10589700D01*
X-24269600Y10589700D02*
X-24269600Y5519700D01*
X-24269600Y5519700D02*
X-44709600Y5519700D01*
X-44709600Y5519700D02*
X-44709600Y7054700D01*
X-44819600Y15324700D02*
X-24259600Y15324700D01*
X-24259600Y15324700D02*
X-24259600Y824700D01*
X-24259600Y824700D02*
X-44819600Y824700D01*
X-44819600Y824700D02*
X-44819600Y15324700D01*
X-44709600Y7054700D02*
G75*
G03*
X-44709600Y9054700I0J1000000D01*
G01*
%TO.C,SP1*%
X17162000Y19367000D02*
G75*
G03*
X17162000Y19367000I-6100000J0D01*
G01*
%TO.C,J1*%
X38552400Y-28185500D02*
G75*
G03*
X38552400Y-28185500I-2180000J0D01*
G01*
X33472400Y-28185500D02*
G75*
G03*
X33472400Y-28185500I-2180000J0D01*
G01*
X28392400Y-28185500D02*
G75*
G03*
X28392400Y-28185500I-2180000J0D01*
G01*
X23312400Y-28185500D02*
G75*
G03*
X23312400Y-28185500I-2180000J0D01*
G01*
X18232400Y-28185500D02*
G75*
G03*
X18232400Y-28185500I-2180000J0D01*
G01*
X13152400Y-28185500D02*
G75*
G03*
X13152400Y-28185500I-2180000J0D01*
G01*
X8072400Y-28185500D02*
G75*
G03*
X8072400Y-28185500I-2180000J0D01*
G01*
X2992400Y-28185500D02*
G75*
G03*
X2992400Y-28185500I-2180000J0D01*
G01*
X-2087600Y-28185500D02*
G75*
G03*
X-2087600Y-28185500I-2180000J0D01*
G01*
X-7167600Y-28185500D02*
G75*
G03*
X-7167600Y-28185500I-2180000J0D01*
G01*
X-12247600Y-28185500D02*
G75*
G03*
X-12247600Y-28185500I-2180000J0D01*
G01*
X-17327600Y-28185500D02*
G75*
G03*
X-17327600Y-28185500I-2180000J0D01*
G01*
X-22407600Y-28185500D02*
G75*
G03*
X-22407600Y-28185500I-2180000J0D01*
G01*
X-27487600Y-28185500D02*
G75*
G03*
X-27487600Y-28185500I-2180000J0D01*
G01*
X-32567600Y-28185500D02*
G75*
G03*
X-32567600Y-28185500I-2180000J0D01*
G01*
X38972400Y-31985500D02*
X-37348600Y-31985500D01*
X38972400Y-30715500D02*
X-37348600Y-30715500D01*
X38972400Y-24385500D02*
X-37347600Y-24385500D01*
X38972400Y-24385500D02*
X38972400Y-31985500D01*
X-37347600Y-24385500D02*
X-37348600Y-31985500D01*
X34718400Y-26797500D02*
X34825400Y-26904500D01*
X37654400Y-29732500D02*
X37760400Y-29839500D01*
X34984400Y-26531500D02*
X35091400Y-26638500D01*
X37920400Y-29466500D02*
X38026400Y-29573500D01*
X29638400Y-26797500D02*
X30033400Y-27193500D01*
X32299400Y-29459500D02*
X32679400Y-29839500D01*
X29904400Y-26531500D02*
X30284400Y-26911500D01*
X32550400Y-29177500D02*
X32945400Y-29573500D01*
X24558400Y-26797500D02*
X24953400Y-27193500D01*
X27219400Y-29459500D02*
X27599400Y-29839500D01*
X24824400Y-26531500D02*
X25204400Y-26911500D01*
X27470400Y-29177500D02*
X27865400Y-29573500D01*
X19478400Y-26797500D02*
X19873400Y-27193500D01*
X22139400Y-29459500D02*
X22519400Y-29839500D01*
X19744400Y-26531500D02*
X20124400Y-26911500D01*
X22390400Y-29177500D02*
X22785400Y-29573500D01*
X14398400Y-26797500D02*
X14793400Y-27193500D01*
X17059400Y-29459500D02*
X17439400Y-29839500D01*
X14664400Y-26531500D02*
X15044400Y-26911500D01*
X17310400Y-29177500D02*
X17705400Y-29573500D01*
X9318400Y-26797500D02*
X9713400Y-27193500D01*
X11979400Y-29459500D02*
X12359400Y-29839500D01*
X9584400Y-26531500D02*
X9964400Y-26911500D01*
X12230400Y-29177500D02*
X12625400Y-29573500D01*
X4238400Y-26797500D02*
X4633400Y-27193500D01*
X6899400Y-29459500D02*
X7279400Y-29839500D01*
X4504400Y-26531500D02*
X4884400Y-26911500D01*
X7150400Y-29177500D02*
X7545400Y-29573500D01*
X-841600Y-26797500D02*
X-446600Y-27193500D01*
X1819400Y-29459500D02*
X2199400Y-29839500D01*
X-575600Y-26531500D02*
X-195600Y-26911500D01*
X2070400Y-29177500D02*
X2465400Y-29573500D01*
X-5921600Y-26797500D02*
X-5526600Y-27193500D01*
X-3260600Y-29459500D02*
X-2880600Y-29839500D01*
X-5655600Y-26531500D02*
X-5275600Y-26911500D01*
X-3009600Y-29177500D02*
X-2614600Y-29573500D01*
X-11001600Y-26797500D02*
X-10606600Y-27193500D01*
X-8340600Y-29459500D02*
X-7960600Y-29839500D01*
X-10735600Y-26531500D02*
X-10355600Y-26911500D01*
X-8089600Y-29177500D02*
X-7694600Y-29573500D01*
X-16081600Y-26797500D02*
X-15686600Y-27193500D01*
X-13420600Y-29459500D02*
X-13040600Y-29839500D01*
X-15815600Y-26531500D02*
X-15435600Y-26911500D01*
X-13169600Y-29177500D02*
X-12774600Y-29573500D01*
X-21161600Y-26797500D02*
X-20766600Y-27193500D01*
X-18500600Y-29459500D02*
X-18120600Y-29839500D01*
X-20895600Y-26531500D02*
X-20515600Y-26911500D01*
X-18249600Y-29177500D02*
X-17854600Y-29573500D01*
X-26241600Y-26797500D02*
X-25846600Y-27193500D01*
X-23580600Y-29459500D02*
X-23200600Y-29839500D01*
X-25975600Y-26531500D02*
X-25595600Y-26911500D01*
X-23329600Y-29177500D02*
X-22934600Y-29573500D01*
X-31321600Y-26797500D02*
X-30926600Y-27193500D01*
X-28660600Y-29459500D02*
X-28280600Y-29839500D01*
X-31055600Y-26531500D02*
X-30675600Y-26911500D01*
X-28409600Y-29177500D02*
X-28014600Y-29573500D01*
X-36401600Y-26797500D02*
X-36006600Y-27193500D01*
X-33740600Y-29459500D02*
X-33360600Y-29839500D01*
X-36135600Y-26531500D02*
X-35755600Y-26911500D01*
X-33489600Y-29177500D02*
X-33094600Y-29573500D01*
%TD*%
%TO.C,RKC1*%
D10*
X23938257Y-12578600D02*
X23366828Y-12178600D01*
X23938257Y-11892885D02*
X22738257Y-11892885D01*
X22738257Y-12350028D01*
X22795400Y-12464314D01*
X22852542Y-12521457D01*
X22966828Y-12578600D01*
X23138257Y-12578600D01*
X23252542Y-12521457D01*
X23309685Y-12464314D01*
X23366828Y-12350028D01*
X23366828Y-11892885D01*
X23938257Y-13092885D02*
X22738257Y-13092885D01*
X23938257Y-13778600D02*
X23252542Y-13264314D01*
X22738257Y-13778600D02*
X23423971Y-13092885D01*
X23823971Y-14978600D02*
X23881114Y-14921457D01*
X23938257Y-14750028D01*
X23938257Y-14635742D01*
X23881114Y-14464314D01*
X23766828Y-14350028D01*
X23652542Y-14292885D01*
X23423971Y-14235742D01*
X23252542Y-14235742D01*
X23023971Y-14292885D01*
X22909685Y-14350028D01*
X22795400Y-14464314D01*
X22738257Y-14635742D01*
X22738257Y-14750028D01*
X22795400Y-14921457D01*
X22852542Y-14978600D01*
X23938257Y-16121457D02*
X23938257Y-15435742D01*
X23938257Y-15778600D02*
X22738257Y-15778600D01*
X22909685Y-15664314D01*
X23023971Y-15550028D01*
X23081114Y-15435742D01*
%TO.C,RKC2*%
X20890257Y-12578600D02*
X20318828Y-12178600D01*
X20890257Y-11892885D02*
X19690257Y-11892885D01*
X19690257Y-12350028D01*
X19747400Y-12464314D01*
X19804542Y-12521457D01*
X19918828Y-12578600D01*
X20090257Y-12578600D01*
X20204542Y-12521457D01*
X20261685Y-12464314D01*
X20318828Y-12350028D01*
X20318828Y-11892885D01*
X20890257Y-13092885D02*
X19690257Y-13092885D01*
X20890257Y-13778600D02*
X20204542Y-13264314D01*
X19690257Y-13778600D02*
X20375971Y-13092885D01*
X20775971Y-14978600D02*
X20833114Y-14921457D01*
X20890257Y-14750028D01*
X20890257Y-14635742D01*
X20833114Y-14464314D01*
X20718828Y-14350028D01*
X20604542Y-14292885D01*
X20375971Y-14235742D01*
X20204542Y-14235742D01*
X19975971Y-14292885D01*
X19861685Y-14350028D01*
X19747400Y-14464314D01*
X19690257Y-14635742D01*
X19690257Y-14750028D01*
X19747400Y-14921457D01*
X19804542Y-14978600D01*
X19804542Y-15435742D02*
X19747400Y-15492885D01*
X19690257Y-15607171D01*
X19690257Y-15892885D01*
X19747400Y-16007171D01*
X19804542Y-16064314D01*
X19918828Y-16121457D01*
X20033114Y-16121457D01*
X20204542Y-16064314D01*
X20890257Y-15378600D01*
X20890257Y-16121457D01*
%TO.C,RKO1*%
X17791457Y-12550028D02*
X17220028Y-12150028D01*
X17791457Y-11864314D02*
X16591457Y-11864314D01*
X16591457Y-12321457D01*
X16648600Y-12435742D01*
X16705742Y-12492885D01*
X16820028Y-12550028D01*
X16991457Y-12550028D01*
X17105742Y-12492885D01*
X17162885Y-12435742D01*
X17220028Y-12321457D01*
X17220028Y-11864314D01*
X17791457Y-13064314D02*
X16591457Y-13064314D01*
X17791457Y-13750028D02*
X17105742Y-13235742D01*
X16591457Y-13750028D02*
X17277171Y-13064314D01*
X16591457Y-14492885D02*
X16591457Y-14721457D01*
X16648600Y-14835742D01*
X16762885Y-14950028D01*
X16991457Y-15007171D01*
X17391457Y-15007171D01*
X17620028Y-14950028D01*
X17734314Y-14835742D01*
X17791457Y-14721457D01*
X17791457Y-14492885D01*
X17734314Y-14378600D01*
X17620028Y-14264314D01*
X17391457Y-14207171D01*
X16991457Y-14207171D01*
X16762885Y-14264314D01*
X16648600Y-14378600D01*
X16591457Y-14492885D01*
X17791457Y-16150028D02*
X17791457Y-15464314D01*
X17791457Y-15807171D02*
X16591457Y-15807171D01*
X16762885Y-15692885D01*
X16877171Y-15578600D01*
X16934314Y-15464314D01*
X14487857Y-6618142D02*
X15287857Y-6618142D01*
X14030714Y-6332428D02*
X14887857Y-6046714D01*
X14887857Y-6789571D01*
X15287857Y-7246714D02*
X14087857Y-7246714D01*
X15287857Y-7932428D02*
X14602142Y-7418142D01*
X14087857Y-7932428D02*
X14773571Y-7246714D01*
X14087857Y-8332428D02*
X14087857Y-9132428D01*
X15287857Y-8618142D01*
%TD*%
M02*
