%TF.GenerationSoftware,KiCad,Pcbnew,5.1.10*%
%TF.CreationDate,2021-09-04T21:06:35+02:00*%
%TF.ProjectId,Termostato-Diferencial-Mega,5465726d-6f73-4746-9174-6f2d44696665,rev?*%
%TF.SameCoordinates,PX9048090PY5896390*%
%TF.FileFunction,Copper,L2,Bot*%
%TF.FilePolarity,Positive*%
%FSLAX46Y46*%
G04 Gerber Fmt 4.6, Leading zero omitted, Abs format (unit mm)*
G04 Created by KiCad (PCBNEW 5.1.10) date 2021-09-04 21:06:35*
%MOMM*%
%LPD*%
G01*
G04 APERTURE LIST*
%TA.AperFunction,NonConductor*%
%ADD10C,0.300000*%
%TD*%
%TA.AperFunction,NonConductor*%
%ADD11C,0.100000*%
%TD*%
%TA.AperFunction,ComponentPad*%
%ADD12O,1.700000X3.000000*%
%TD*%
%TA.AperFunction,ComponentPad*%
%ADD13R,1.700000X3.000000*%
%TD*%
%TA.AperFunction,ComponentPad*%
%ADD14O,4.000000X1.700000*%
%TD*%
%TA.AperFunction,ComponentPad*%
%ADD15R,3.000000X1.500000*%
%TD*%
%TA.AperFunction,SMDPad,CuDef*%
%ADD16R,3.000000X1.500000*%
%TD*%
%TA.AperFunction,ComponentPad*%
%ADD17O,3.000000X1.700000*%
%TD*%
%TA.AperFunction,ComponentPad*%
%ADD18O,1.700000X2.000000*%
%TD*%
%TA.AperFunction,ComponentPad*%
%ADD19C,6.000000*%
%TD*%
%TA.AperFunction,SMDPad,CuDef*%
%ADD20O,1.600000X3.400000*%
%TD*%
%TA.AperFunction,SMDPad,CuDef*%
%ADD21R,1.600000X3.400000*%
%TD*%
%TA.AperFunction,ComponentPad*%
%ADD22R,3.000000X3.000000*%
%TD*%
%TA.AperFunction,ComponentPad*%
%ADD23O,3.000000X3.000000*%
%TD*%
%TA.AperFunction,ComponentPad*%
%ADD24O,3.000000X4.000000*%
%TD*%
%TA.AperFunction,ComponentPad*%
%ADD25R,2.600000X4.000000*%
%TD*%
%TA.AperFunction,ComponentPad*%
%ADD26O,2.600000X4.000000*%
%TD*%
%TA.AperFunction,ComponentPad*%
%ADD27R,3.000000X4.000000*%
%TD*%
%TA.AperFunction,ViaPad*%
%ADD28C,1.400000*%
%TD*%
%TA.AperFunction,Conductor*%
%ADD29C,0.500000*%
%TD*%
G04 APERTURE END LIST*
D10*
X33685714Y36901429D02*
X32828571Y36901429D01*
X33257142Y35401429D02*
X33257142Y36901429D01*
X32328571Y36187143D02*
X31828571Y36187143D01*
X31614285Y35401429D02*
X32328571Y35401429D01*
X32328571Y36901429D01*
X31614285Y36901429D01*
X30114285Y35401429D02*
X30614285Y36115715D01*
X30971428Y35401429D02*
X30971428Y36901429D01*
X30400000Y36901429D01*
X30257142Y36830000D01*
X30185714Y36758572D01*
X30114285Y36615715D01*
X30114285Y36401429D01*
X30185714Y36258572D01*
X30257142Y36187143D01*
X30400000Y36115715D01*
X30971428Y36115715D01*
X29471428Y35401429D02*
X29471428Y36901429D01*
X28971428Y35830000D01*
X28471428Y36901429D01*
X28471428Y35401429D01*
X27471428Y36901429D02*
X27185714Y36901429D01*
X27042857Y36830000D01*
X26900000Y36687143D01*
X26828571Y36401429D01*
X26828571Y35901429D01*
X26900000Y35615715D01*
X27042857Y35472858D01*
X27185714Y35401429D01*
X27471428Y35401429D01*
X27614285Y35472858D01*
X27757142Y35615715D01*
X27828571Y35901429D01*
X27828571Y36401429D01*
X27757142Y36687143D01*
X27614285Y36830000D01*
X27471428Y36901429D01*
X26257142Y35472858D02*
X26042857Y35401429D01*
X25685714Y35401429D01*
X25542857Y35472858D01*
X25471428Y35544286D01*
X25400000Y35687143D01*
X25400000Y35830000D01*
X25471428Y35972858D01*
X25542857Y36044286D01*
X25685714Y36115715D01*
X25971428Y36187143D01*
X26114285Y36258572D01*
X26185714Y36330000D01*
X26257142Y36472858D01*
X26257142Y36615715D01*
X26185714Y36758572D01*
X26114285Y36830000D01*
X25971428Y36901429D01*
X25614285Y36901429D01*
X25400000Y36830000D01*
X24971428Y36901429D02*
X24114285Y36901429D01*
X24542857Y35401429D02*
X24542857Y36901429D01*
X23685714Y35830000D02*
X22971428Y35830000D01*
X23828571Y35401429D02*
X23328571Y36901429D01*
X22828571Y35401429D01*
X22542857Y36901429D02*
X21685714Y36901429D01*
X22114285Y35401429D02*
X22114285Y36901429D01*
X20900000Y36901429D02*
X20614285Y36901429D01*
X20471428Y36830000D01*
X20328571Y36687143D01*
X20257142Y36401429D01*
X20257142Y35901429D01*
X20328571Y35615715D01*
X20471428Y35472858D01*
X20614285Y35401429D01*
X20900000Y35401429D01*
X21042857Y35472858D01*
X21185714Y35615715D01*
X21257142Y35901429D01*
X21257142Y36401429D01*
X21185714Y36687143D01*
X21042857Y36830000D01*
X20900000Y36901429D01*
X18471428Y35401429D02*
X18471428Y36901429D01*
X18114285Y36901429D01*
X17900000Y36830000D01*
X17757142Y36687143D01*
X17685714Y36544286D01*
X17614285Y36258572D01*
X17614285Y36044286D01*
X17685714Y35758572D01*
X17757142Y35615715D01*
X17900000Y35472858D01*
X18114285Y35401429D01*
X18471428Y35401429D01*
X16971428Y35401429D02*
X16971428Y36901429D01*
X15757142Y36187143D02*
X16257142Y36187143D01*
X16257142Y35401429D02*
X16257142Y36901429D01*
X15542857Y36901429D01*
X14971428Y36187143D02*
X14471428Y36187143D01*
X14257142Y35401429D02*
X14971428Y35401429D01*
X14971428Y36901429D01*
X14257142Y36901429D01*
X12757142Y35401429D02*
X13257142Y36115715D01*
X13614285Y35401429D02*
X13614285Y36901429D01*
X13042857Y36901429D01*
X12900000Y36830000D01*
X12828571Y36758572D01*
X12757142Y36615715D01*
X12757142Y36401429D01*
X12828571Y36258572D01*
X12900000Y36187143D01*
X13042857Y36115715D01*
X13614285Y36115715D01*
X12114285Y36187143D02*
X11614285Y36187143D01*
X11400000Y35401429D02*
X12114285Y35401429D01*
X12114285Y36901429D01*
X11400000Y36901429D01*
X10757142Y35401429D02*
X10757142Y36901429D01*
X9900000Y35401429D01*
X9900000Y36901429D01*
X8328571Y35544286D02*
X8400000Y35472858D01*
X8614285Y35401429D01*
X8757142Y35401429D01*
X8971428Y35472858D01*
X9114285Y35615715D01*
X9185714Y35758572D01*
X9257142Y36044286D01*
X9257142Y36258572D01*
X9185714Y36544286D01*
X9114285Y36687143D01*
X8971428Y36830000D01*
X8757142Y36901429D01*
X8614285Y36901429D01*
X8400000Y36830000D01*
X8328571Y36758572D01*
X7685714Y35401429D02*
X7685714Y36901429D01*
X7042857Y35830000D02*
X6328571Y35830000D01*
X7185714Y35401429D02*
X6685714Y36901429D01*
X6185714Y35401429D01*
X4971428Y35401429D02*
X5685714Y35401429D01*
X5685714Y36901429D01*
X3328571Y35401429D02*
X3328571Y36901429D01*
X2828571Y35830000D01*
X2328571Y36901429D01*
X2328571Y35401429D01*
X1614285Y36187143D02*
X1114285Y36187143D01*
X900000Y35401429D02*
X1614285Y35401429D01*
X1614285Y36901429D01*
X900000Y36901429D01*
X-528572Y36830000D02*
X-385715Y36901429D01*
X-171429Y36901429D01*
X42857Y36830000D01*
X185714Y36687143D01*
X257142Y36544286D01*
X328571Y36258572D01*
X328571Y36044286D01*
X257142Y35758572D01*
X185714Y35615715D01*
X42857Y35472858D01*
X-171429Y35401429D01*
X-314286Y35401429D01*
X-528572Y35472858D01*
X-600000Y35544286D01*
X-600000Y36044286D01*
X-314286Y36044286D01*
X-1171429Y35830000D02*
X-1885715Y35830000D01*
X-1028572Y35401429D02*
X-1528572Y36901429D01*
X-2028572Y35401429D01*
X-3600000Y36758572D02*
X-3671429Y36830000D01*
X-3814286Y36901429D01*
X-4171429Y36901429D01*
X-4314286Y36830000D01*
X-4385715Y36758572D01*
X-4457143Y36615715D01*
X-4457143Y36472858D01*
X-4385715Y36258572D01*
X-3528572Y35401429D01*
X-4457143Y35401429D01*
X-5385715Y36901429D02*
X-5528572Y36901429D01*
X-5671429Y36830000D01*
X-5742858Y36758572D01*
X-5814286Y36615715D01*
X-5885715Y36330000D01*
X-5885715Y35972858D01*
X-5814286Y35687143D01*
X-5742858Y35544286D01*
X-5671429Y35472858D01*
X-5528572Y35401429D01*
X-5385715Y35401429D01*
X-5242858Y35472858D01*
X-5171429Y35544286D01*
X-5100000Y35687143D01*
X-5028572Y35972858D01*
X-5028572Y36330000D01*
X-5100000Y36615715D01*
X-5171429Y36758572D01*
X-5242858Y36830000D01*
X-5385715Y36901429D01*
X-6457143Y36758572D02*
X-6528572Y36830000D01*
X-6671429Y36901429D01*
X-7028572Y36901429D01*
X-7171429Y36830000D01*
X-7242858Y36758572D01*
X-7314286Y36615715D01*
X-7314286Y36472858D01*
X-7242858Y36258572D01*
X-6385715Y35401429D01*
X-7314286Y35401429D01*
X-8742858Y35401429D02*
X-7885715Y35401429D01*
X-8314286Y35401429D02*
X-8314286Y36901429D01*
X-8171429Y36687143D01*
X-8028572Y36544286D01*
X-7885715Y36472858D01*
X24078571Y33422858D02*
X22935714Y33422858D01*
X21078571Y32851429D02*
X21078571Y34351429D01*
X20578571Y33280000D01*
X20078571Y34351429D01*
X20078571Y32851429D01*
X19364285Y32851429D02*
X19364285Y34351429D01*
X18721428Y32922858D02*
X18507142Y32851429D01*
X18150000Y32851429D01*
X18007142Y32922858D01*
X17935714Y32994286D01*
X17864285Y33137143D01*
X17864285Y33280000D01*
X17935714Y33422858D01*
X18007142Y33494286D01*
X18150000Y33565715D01*
X18435714Y33637143D01*
X18578571Y33708572D01*
X18650000Y33780000D01*
X18721428Y33922858D01*
X18721428Y34065715D01*
X18650000Y34208572D01*
X18578571Y34280000D01*
X18435714Y34351429D01*
X18078571Y34351429D01*
X17864285Y34280000D01*
X16935714Y34351429D02*
X16650000Y34351429D01*
X16507142Y34280000D01*
X16364285Y34137143D01*
X16292857Y33851429D01*
X16292857Y33351429D01*
X16364285Y33065715D01*
X16507142Y32922858D01*
X16650000Y32851429D01*
X16935714Y32851429D01*
X17078571Y32922858D01*
X17221428Y33065715D01*
X17292857Y33351429D01*
X17292857Y33851429D01*
X17221428Y34137143D01*
X17078571Y34280000D01*
X16935714Y34351429D01*
X14935714Y32851429D02*
X15650000Y32851429D01*
X15650000Y34351429D01*
X14507142Y33280000D02*
X13792857Y33280000D01*
X14650000Y32851429D02*
X14150000Y34351429D01*
X13650000Y32851429D01*
X12292857Y32851429D02*
X12792857Y33565715D01*
X13150000Y32851429D02*
X13150000Y34351429D01*
X12578571Y34351429D01*
X12435714Y34280000D01*
X12364285Y34208572D01*
X12292857Y34065715D01*
X12292857Y33851429D01*
X12364285Y33708572D01*
X12435714Y33637143D01*
X12578571Y33565715D01*
X13150000Y33565715D01*
X10792857Y32994286D02*
X10864285Y32922858D01*
X11078571Y32851429D01*
X11221428Y32851429D01*
X11435714Y32922858D01*
X11578571Y33065715D01*
X11650000Y33208572D01*
X11721428Y33494286D01*
X11721428Y33708572D01*
X11650000Y33994286D01*
X11578571Y34137143D01*
X11435714Y34280000D01*
X11221428Y34351429D01*
X11078571Y34351429D01*
X10864285Y34280000D01*
X10792857Y34208572D01*
X10221428Y33280000D02*
X9507142Y33280000D01*
X10364285Y32851429D02*
X9864285Y34351429D01*
X9364285Y32851429D01*
X8935714Y32922858D02*
X8721428Y32851429D01*
X8364285Y32851429D01*
X8221428Y32922858D01*
X8150000Y32994286D01*
X8078571Y33137143D01*
X8078571Y33280000D01*
X8150000Y33422858D01*
X8221428Y33494286D01*
X8364285Y33565715D01*
X8650000Y33637143D01*
X8792857Y33708572D01*
X8864285Y33780000D01*
X8935714Y33922858D01*
X8935714Y34065715D01*
X8864285Y34208572D01*
X8792857Y34280000D01*
X8650000Y34351429D01*
X8292857Y34351429D01*
X8078571Y34280000D01*
X7435714Y33637143D02*
X6935714Y33637143D01*
X6721428Y32851429D02*
X7435714Y32851429D01*
X7435714Y34351429D01*
X6721428Y34351429D01*
X5221428Y32851429D02*
X5721428Y33565715D01*
X6078571Y32851429D02*
X6078571Y34351429D01*
X5507142Y34351429D01*
X5364285Y34280000D01*
X5292857Y34208572D01*
X5221428Y34065715D01*
X5221428Y33851429D01*
X5292857Y33708572D01*
X5364285Y33637143D01*
X5507142Y33565715D01*
X6078571Y33565715D01*
X4292857Y34351429D02*
X4007142Y34351429D01*
X3864285Y34280000D01*
X3721428Y34137143D01*
X3650000Y33851429D01*
X3650000Y33351429D01*
X3721428Y33065715D01*
X3864285Y32922858D01*
X4007142Y32851429D01*
X4292857Y32851429D01*
X4435714Y32922858D01*
X4578571Y33065715D01*
X4650000Y33351429D01*
X4650000Y33851429D01*
X4578571Y34137143D01*
X4435714Y34280000D01*
X4292857Y34351429D01*
X1864285Y33422858D02*
X721428Y33422858D01*
X25578571Y30730000D02*
X24864285Y30730000D01*
X25721428Y30301429D02*
X25221428Y31801429D01*
X24721428Y30301429D01*
X24221428Y30301429D02*
X24221428Y31801429D01*
X23650000Y31801429D01*
X23507142Y31730000D01*
X23435714Y31658572D01*
X23364285Y31515715D01*
X23364285Y31301429D01*
X23435714Y31158572D01*
X23507142Y31087143D01*
X23650000Y31015715D01*
X24221428Y31015715D01*
X22792857Y30730000D02*
X22078571Y30730000D01*
X22935714Y30301429D02*
X22435714Y31801429D01*
X21935714Y30301429D01*
X20578571Y30444286D02*
X20650000Y30372858D01*
X20864285Y30301429D01*
X21007142Y30301429D01*
X21221428Y30372858D01*
X21364285Y30515715D01*
X21435714Y30658572D01*
X21507142Y30944286D01*
X21507142Y31158572D01*
X21435714Y31444286D01*
X21364285Y31587143D01*
X21221428Y31730000D01*
X21007142Y31801429D01*
X20864285Y31801429D01*
X20650000Y31730000D01*
X20578571Y31658572D01*
X19935714Y30301429D02*
X19935714Y31801429D01*
X19935714Y31087143D02*
X19078571Y31087143D01*
X19078571Y30301429D02*
X19078571Y31801429D01*
X18364285Y31087143D02*
X17864285Y31087143D01*
X17650000Y30301429D02*
X18364285Y30301429D01*
X18364285Y31801429D01*
X17650000Y31801429D01*
X16507142Y31087143D02*
X16292857Y31015715D01*
X16221428Y30944286D01*
X16150000Y30801429D01*
X16150000Y30587143D01*
X16221428Y30444286D01*
X16292857Y30372858D01*
X16435714Y30301429D01*
X17007142Y30301429D01*
X17007142Y31801429D01*
X16507142Y31801429D01*
X16364285Y31730000D01*
X16292857Y31658572D01*
X16221428Y31515715D01*
X16221428Y31372858D01*
X16292857Y31230000D01*
X16364285Y31158572D01*
X16507142Y31087143D01*
X17007142Y31087143D01*
X14650000Y30444286D02*
X14721428Y30372858D01*
X14935714Y30301429D01*
X15078571Y30301429D01*
X15292857Y30372858D01*
X15435714Y30515715D01*
X15507142Y30658572D01*
X15578571Y30944286D01*
X15578571Y31158572D01*
X15507142Y31444286D01*
X15435714Y31587143D01*
X15292857Y31730000D01*
X15078571Y31801429D01*
X14935714Y31801429D01*
X14721428Y31730000D01*
X14650000Y31658572D01*
X14007142Y30301429D02*
X14007142Y31801429D01*
X13150000Y30301429D01*
X13150000Y31801429D01*
X11507142Y31015715D02*
X11578571Y31087143D01*
X11721428Y31158572D01*
X11864285Y31158572D01*
X12007142Y31087143D01*
X12078571Y31015715D01*
X12150000Y30872858D01*
X12150000Y30730000D01*
X12078571Y30587143D01*
X12007142Y30515715D01*
X11864285Y30444286D01*
X11721428Y30444286D01*
X11578571Y30515715D01*
X11507142Y30587143D01*
X11507142Y31158572D02*
X11507142Y30587143D01*
X11435714Y30515715D01*
X11364285Y30515715D01*
X11221428Y30587143D01*
X11150000Y30730000D01*
X11150000Y31087143D01*
X11292857Y31301429D01*
X11507142Y31444286D01*
X11792857Y31515715D01*
X12078571Y31444286D01*
X12292857Y31301429D01*
X12435714Y31087143D01*
X12507142Y30801429D01*
X12435714Y30515715D01*
X12292857Y30301429D01*
X12078571Y30158572D01*
X11792857Y30087143D01*
X11507142Y30158572D01*
X11292857Y30301429D01*
X9721428Y31730000D02*
X9864285Y31801429D01*
X10078571Y31801429D01*
X10292857Y31730000D01*
X10435714Y31587143D01*
X10507142Y31444286D01*
X10578571Y31158572D01*
X10578571Y30944286D01*
X10507142Y30658572D01*
X10435714Y30515715D01*
X10292857Y30372858D01*
X10078571Y30301429D01*
X9935714Y30301429D01*
X9721428Y30372858D01*
X9650000Y30444286D01*
X9650000Y30944286D01*
X9935714Y30944286D01*
X9007142Y30301429D02*
X9007142Y31801429D01*
X8507142Y30730000D01*
X8007142Y31801429D01*
X8007142Y30301429D01*
X7364285Y30730000D02*
X6650000Y30730000D01*
X7507142Y30301429D02*
X7007142Y31801429D01*
X6507142Y30301429D01*
X6007142Y30301429D02*
X6007142Y31801429D01*
X4578571Y30301429D02*
X5292857Y30301429D01*
X5292857Y31801429D01*
X4078571Y30444286D02*
X4007142Y30372858D01*
X4078571Y30301429D01*
X4150000Y30372858D01*
X4078571Y30444286D01*
X4078571Y30301429D01*
X2507142Y30444286D02*
X2578571Y30372858D01*
X2792857Y30301429D01*
X2935714Y30301429D01*
X3150000Y30372858D01*
X3292857Y30515715D01*
X3364285Y30658572D01*
X3435714Y30944286D01*
X3435714Y31158572D01*
X3364285Y31444286D01*
X3292857Y31587143D01*
X3150000Y31730000D01*
X2935714Y31801429D01*
X2792857Y31801429D01*
X2578571Y31730000D01*
X2507142Y31658572D01*
X1578571Y31801429D02*
X1292857Y31801429D01*
X1150000Y31730000D01*
X1007142Y31587143D01*
X935714Y31301429D01*
X935714Y30801429D01*
X1007142Y30515715D01*
X1150000Y30372858D01*
X1292857Y30301429D01*
X1578571Y30301429D01*
X1721428Y30372858D01*
X1864285Y30515715D01*
X1935714Y30801429D01*
X1935714Y31301429D01*
X1864285Y31587143D01*
X1721428Y31730000D01*
X1578571Y31801429D01*
X292857Y30301429D02*
X292857Y31801429D01*
X-207143Y30730000D01*
X-707143Y31801429D01*
X-707143Y30301429D01*
D11*
X50000Y0D02*
G75*
G03*
X50000Y0I-50000J0D01*
G01*
D12*
%TO.P,RELE-3-4,4*%
%TO.N,/PIN10-45*%
X40186400Y-15458900D03*
%TO.P,RELE-3-4,3*%
%TO.N,/PIN10-43*%
X42726400Y-15458900D03*
D13*
%TO.P,RELE-3-4,2*%
%TO.N,GND*%
X45266400Y-15458900D03*
D12*
%TO.P,RELE-3-4,1*%
%TO.N,VCC*%
X47806400Y-15458900D03*
%TD*%
%TO.P,RELE-1-2,4*%
%TO.N,/PIN10-49*%
X40186400Y-20919900D03*
%TO.P,RELE-1-2,3*%
%TO.N,/PIN10-47*%
X42726400Y-20919900D03*
D13*
%TO.P,RELE-1-2,2*%
%TO.N,GND*%
X45266400Y-20919900D03*
D12*
%TO.P,RELE-1-2,1*%
%TO.N,VCC*%
X47806400Y-20919900D03*
%TD*%
%TO.P,PINS5,8*%
%TO.N,Net-(PINS5-Pad8)*%
X-2008800Y27603500D03*
%TO.P,PINS5,7*%
%TO.N,Net-(PINS5-Pad7)*%
X-4548800Y27603500D03*
%TO.P,PINS5,6*%
%TO.N,/PIN5-6*%
X-7088800Y27603500D03*
%TO.P,PINS5,5*%
%TO.N,/PIN5-5*%
X-9628800Y27603500D03*
%TO.P,PINS5,4*%
%TO.N,/PIN5-4*%
X-12168800Y27603500D03*
%TO.P,PINS5,3*%
%TO.N,/PIN5-3*%
X-14708800Y27603500D03*
%TO.P,PINS5,2*%
%TO.N,/PIN5-2*%
X-17248800Y27603500D03*
%TO.P,PINS5,1*%
%TO.N,/PIN5-1*%
X-19788800Y27603500D03*
%TD*%
%TO.P,RELE-5-6,4*%
%TO.N,/PIN10-41*%
X40186400Y-9997900D03*
%TO.P,RELE-5-6,3*%
%TO.N,/PIN10-39*%
X42726400Y-9997900D03*
D13*
%TO.P,RELE-5-6,2*%
%TO.N,GND*%
X45266400Y-9997900D03*
D12*
%TO.P,RELE-5-6,1*%
%TO.N,VCC*%
X47806400Y-9997900D03*
%TD*%
%TO.P,RKC1,2*%
%TO.N,/PIN10-44*%
%TA.AperFunction,SMDPad,CuDef*%
G36*
G01*
X23883500Y-7320500D02*
X22910500Y-7320500D01*
G75*
G02*
X22522000Y-6932000I0J388500D01*
G01*
X22522000Y-5709000D01*
G75*
G02*
X22910500Y-5320500I388500J0D01*
G01*
X23883500Y-5320500D01*
G75*
G02*
X24272000Y-5709000I0J-388500D01*
G01*
X24272000Y-6932000D01*
G75*
G02*
X23883500Y-7320500I-388500J0D01*
G01*
G37*
%TD.AperFunction*%
%TO.P,RKC1,1*%
%TO.N,GND*%
%TA.AperFunction,SMDPad,CuDef*%
G36*
G01*
X23883500Y-11105500D02*
X22910500Y-11105500D01*
G75*
G02*
X22522000Y-10717000I0J388500D01*
G01*
X22522000Y-9494000D01*
G75*
G02*
X22910500Y-9105500I388500J0D01*
G01*
X23883500Y-9105500D01*
G75*
G02*
X24272000Y-9494000I0J-388500D01*
G01*
X24272000Y-10717000D01*
G75*
G02*
X23883500Y-11105500I-388500J0D01*
G01*
G37*
%TD.AperFunction*%
%TD*%
%TO.P,RKC2,2*%
%TO.N,/PIN10-42*%
%TA.AperFunction,SMDPad,CuDef*%
G36*
G01*
X20835500Y-7320500D02*
X19862500Y-7320500D01*
G75*
G02*
X19474000Y-6932000I0J388500D01*
G01*
X19474000Y-5709000D01*
G75*
G02*
X19862500Y-5320500I388500J0D01*
G01*
X20835500Y-5320500D01*
G75*
G02*
X21224000Y-5709000I0J-388500D01*
G01*
X21224000Y-6932000D01*
G75*
G02*
X20835500Y-7320500I-388500J0D01*
G01*
G37*
%TD.AperFunction*%
%TO.P,RKC2,1*%
%TO.N,GND*%
%TA.AperFunction,SMDPad,CuDef*%
G36*
G01*
X20835500Y-11105500D02*
X19862500Y-11105500D01*
G75*
G02*
X19474000Y-10717000I0J388500D01*
G01*
X19474000Y-9494000D01*
G75*
G02*
X19862500Y-9105500I388500J0D01*
G01*
X20835500Y-9105500D01*
G75*
G02*
X21224000Y-9494000I0J-388500D01*
G01*
X21224000Y-10717000D01*
G75*
G02*
X20835500Y-11105500I-388500J0D01*
G01*
G37*
%TD.AperFunction*%
%TD*%
%TO.P,RKO1,1*%
%TO.N,GND*%
%TA.AperFunction,SMDPad,CuDef*%
G36*
G01*
X17787500Y-11105500D02*
X16814500Y-11105500D01*
G75*
G02*
X16426000Y-10717000I0J388500D01*
G01*
X16426000Y-9494000D01*
G75*
G02*
X16814500Y-9105500I388500J0D01*
G01*
X17787500Y-9105500D01*
G75*
G02*
X18176000Y-9494000I0J-388500D01*
G01*
X18176000Y-10717000D01*
G75*
G02*
X17787500Y-11105500I-388500J0D01*
G01*
G37*
%TD.AperFunction*%
%TO.P,RKO1,2*%
%TO.N,/PIN10-40*%
%TA.AperFunction,SMDPad,CuDef*%
G36*
G01*
X17787500Y-7320500D02*
X16814500Y-7320500D01*
G75*
G02*
X16426000Y-6932000I0J388500D01*
G01*
X16426000Y-5709000D01*
G75*
G02*
X16814500Y-5320500I388500J0D01*
G01*
X17787500Y-5320500D01*
G75*
G02*
X18176000Y-5709000I0J-388500D01*
G01*
X18176000Y-6932000D01*
G75*
G02*
X17787500Y-7320500I-388500J0D01*
G01*
G37*
%TD.AperFunction*%
%TD*%
D14*
%TO.P,SW1,5*%
%TO.N,/PIN10-44*%
X21036000Y3750100D03*
%TO.P,SW1,4*%
%TO.N,VCC*%
X21026000Y6300100D03*
%TO.P,SW1,3*%
%TO.N,/PIN10-42*%
X21026000Y8840100D03*
%TO.P,SW1,2*%
%TO.N,VCC*%
X7596000Y8840100D03*
%TO.P,SW1,1*%
%TO.N,/PIN10-40*%
X7596000Y3750100D03*
D15*
%TO.P,SW1,S*%
%TO.N,N/C*%
X14376000Y500100D03*
X14376000Y12120100D03*
D16*
X14376000Y2080100D03*
X14376000Y10490100D03*
%TD*%
D12*
%TO.P,PINS3,8*%
%TO.N,/PIN3-8*%
X26291200Y-20481500D03*
%TO.P,PINS3,7*%
%TO.N,/PIN3-7*%
X23751200Y-20481500D03*
%TO.P,PINS3,6*%
%TO.N,/PIN3-6*%
X21211200Y-20481500D03*
%TO.P,PINS3,5*%
%TO.N,/PIN3-5*%
X18671200Y-20481500D03*
%TO.P,PINS3,4*%
%TO.N,/PIN3-4*%
X16131200Y-20481500D03*
%TO.P,PINS3,3*%
%TO.N,/PIN3-3*%
X13591200Y-20481500D03*
%TO.P,PINS3,2*%
%TO.N,/PIN3-2*%
X11051200Y-20481500D03*
%TD*%
%TO.P,PINS1,8*%
%TO.N,+9V*%
X-19308800Y-20481500D03*
D13*
%TO.P,PINS1,6*%
%TO.N,GND*%
X-24388800Y-20481500D03*
D12*
%TO.P,PINS1,5*%
%TO.N,VCC*%
X-26928800Y-20481500D03*
%TD*%
%TO.P,RELE-7-8,4*%
%TO.N,/PIN10-37*%
X40186400Y-4536900D03*
%TO.P,RELE-7-8,3*%
%TO.N,/PIN10-35*%
X42726400Y-4536900D03*
D13*
%TO.P,RELE-7-8,2*%
%TO.N,GND*%
X45266400Y-4536900D03*
D12*
%TO.P,RELE-7-8,1*%
%TO.N,VCC*%
X47806400Y-4536900D03*
%TD*%
%TO.P,RELE-9-10,4*%
%TO.N,/PIN10-33*%
X40186400Y924100D03*
%TO.P,RELE-9-10,3*%
%TO.N,/PIN10-31*%
X42726400Y924100D03*
D13*
%TO.P,RELE-9-10,2*%
%TO.N,GND*%
X45266400Y924100D03*
D12*
%TO.P,RELE-9-10,1*%
%TO.N,VCC*%
X47806400Y924100D03*
%TD*%
%TO.P,PANTALLA1,4*%
%TO.N,VCC*%
X47745400Y24037100D03*
D13*
%TO.P,PANTALLA1,3*%
%TO.N,GND*%
X45205400Y24037100D03*
D12*
%TO.P,PANTALLA1,2*%
%TO.N,/PIN6-7*%
X42665400Y24037100D03*
%TO.P,PANTALLA1,1*%
%TO.N,/PIN6-8*%
X40125400Y24037100D03*
%TD*%
%TO.P,RELE-15-16,4*%
%TO.N,/PIN10-22*%
X40186400Y17307100D03*
%TO.P,RELE-15-16,3*%
%TO.N,/PIN10-24*%
X42726400Y17307100D03*
D13*
%TO.P,RELE-15-16,2*%
%TO.N,GND*%
X45266400Y17307100D03*
D12*
%TO.P,RELE-15-16,1*%
%TO.N,VCC*%
X47806400Y17307100D03*
%TD*%
%TO.P,RELE-13-14,4*%
%TO.N,/PIN10-25*%
X40186400Y11846100D03*
%TO.P,RELE-13-14,3*%
%TO.N,/PIN10-23*%
X42726400Y11846100D03*
D13*
%TO.P,RELE-13-14,2*%
%TO.N,GND*%
X45266400Y11846100D03*
D12*
%TO.P,RELE-13-14,1*%
%TO.N,VCC*%
X47806400Y11846100D03*
%TD*%
%TO.P,RELE-11-12,4*%
%TO.N,/PIN10-29*%
X40186400Y6385100D03*
%TO.P,RELE-11-12,3*%
%TO.N,/PIN10-27*%
X42726400Y6385100D03*
D13*
%TO.P,RELE-11-12,2*%
%TO.N,GND*%
X45266400Y6385100D03*
D12*
%TO.P,RELE-11-12,1*%
%TO.N,VCC*%
X47806400Y6385100D03*
%TD*%
D17*
%TO.P,PIN10,49*%
%TO.N,/PIN10-49*%
X32110000Y-7910000D03*
%TO.P,PIN10,46*%
%TO.N,/PIN10-46*%
X28170000Y-5370000D03*
%TO.P,PIN10,47*%
%TO.N,/PIN10-47*%
X32110000Y-5370000D03*
%TO.P,PIN10,44*%
%TO.N,/PIN10-44*%
X28170000Y-2830000D03*
%TO.P,PIN10,45*%
%TO.N,/PIN10-45*%
X32110000Y-2830000D03*
%TO.P,PIN10,42*%
%TO.N,/PIN10-42*%
X28170000Y-290000D03*
%TO.P,PIN10,43*%
%TO.N,/PIN10-43*%
X32110000Y-290000D03*
%TO.P,PIN10,40*%
%TO.N,/PIN10-40*%
X28170000Y2250000D03*
%TO.P,PIN10,41*%
%TO.N,/PIN10-41*%
X32110000Y2250000D03*
%TO.P,PIN10,38*%
%TO.N,/PIN10-38*%
X28170000Y4790000D03*
%TO.P,PIN10,39*%
%TO.N,/PIN10-39*%
X32110000Y4790000D03*
%TO.P,PIN10,37*%
%TO.N,/PIN10-37*%
X32110000Y7330000D03*
%TO.P,PIN10,35*%
%TO.N,/PIN10-35*%
X32110000Y9870000D03*
%TO.P,PIN10,33*%
%TO.N,/PIN10-33*%
X32110000Y12410000D03*
%TO.P,PIN10,31*%
%TO.N,/PIN10-31*%
X32110000Y14950000D03*
%TO.P,PIN10,29*%
%TO.N,/PIN10-29*%
X32110000Y17490000D03*
%TO.P,PIN10,27*%
%TO.N,/PIN10-27*%
X32110000Y20030000D03*
%TO.P,PIN10,24*%
%TO.N,/PIN10-24*%
X28170000Y22570000D03*
%TO.P,PIN10,25*%
%TO.N,/PIN10-25*%
X32110000Y22570000D03*
%TO.P,PIN10,22*%
%TO.N,/PIN10-22*%
X28170000Y25110000D03*
%TO.P,PIN10,23*%
%TO.N,/PIN10-23*%
X32110000Y25110000D03*
%TO.P,PIN10,26*%
%TO.N,/PIN10-26*%
X28170000Y20030000D03*
%TD*%
D12*
%TO.P,PINS6,8*%
%TO.N,/PIN6-8*%
X20861200Y27603500D03*
%TO.P,PINS6,7*%
%TO.N,/PIN6-7*%
X18321200Y27603500D03*
%TD*%
D18*
%TO.P,P2,15*%
%TO.N,/DX24*%
X-3978800Y7240500D03*
%TO.P,P2,14*%
%TO.N,/DX23*%
X-6518800Y7240500D03*
%TO.P,P2,13*%
%TO.N,/PIN5-6*%
X-9058800Y7240500D03*
%TO.P,P2,12*%
%TO.N,/DX22*%
X-11598800Y7240500D03*
%TO.P,P2,11*%
%TO.N,/DX21*%
X-14138800Y7240500D03*
%TO.P,P2,10*%
%TO.N,/DX20*%
X-16678800Y7240500D03*
%TO.P,P2,9*%
%TO.N,/DX19*%
X-19218800Y7240500D03*
%TO.P,P2,8*%
%TO.N,/PIN5-6*%
X-21758800Y7240500D03*
%TO.P,P2,7*%
%TO.N,/DX18*%
X-24298800Y7240500D03*
%TO.P,P2,6*%
%TO.N,/DX17*%
X-26838800Y7240500D03*
%TO.P,P2,5*%
%TO.N,/DX16*%
X-29378800Y7240500D03*
%TO.P,P2,4*%
%TO.N,/DX15*%
X-31918800Y7240500D03*
%TO.P,P2,3*%
%TO.N,/PIN5-6*%
X-34458800Y7240500D03*
%TO.P,P2,2*%
%TO.N,/DX14*%
X-36998800Y7240500D03*
%TO.P,P2,1*%
%TO.N,/DX13*%
X-39538800Y7240500D03*
%TD*%
%TO.P,P1,15*%
%TO.N,/DX12*%
X-3978800Y23242500D03*
%TO.P,P1,14*%
%TO.N,/DX11*%
X-6518800Y23242500D03*
%TO.P,P1,13*%
%TO.N,/PIN5-6*%
X-9058800Y23242500D03*
%TO.P,P1,12*%
%TO.N,/DX10*%
X-11598800Y23242500D03*
%TO.P,P1,11*%
%TO.N,/DX9*%
X-14138800Y23242500D03*
%TO.P,P1,10*%
%TO.N,/DX8*%
X-16678800Y23242500D03*
%TO.P,P1,9*%
%TO.N,/DX7*%
X-19218800Y23242500D03*
%TO.P,P1,8*%
%TO.N,/PIN5-6*%
X-21758800Y23242500D03*
%TO.P,P1,7*%
%TO.N,/DX6*%
X-24298800Y23242500D03*
%TO.P,P1,6*%
%TO.N,/DX5*%
X-26838800Y23242500D03*
%TO.P,P1,5*%
%TO.N,/DX4*%
X-29378800Y23242500D03*
%TO.P,P1,4*%
%TO.N,/DX3*%
X-31918800Y23242500D03*
%TO.P,P1,3*%
%TO.N,/PIN5-6*%
X-34458800Y23242500D03*
%TO.P,P1,2*%
%TO.N,/DX2*%
X-36998800Y23242500D03*
%TO.P,P1,1*%
%TO.N,/DX1*%
X-39538800Y23242500D03*
%TD*%
D12*
%TO.P,PINS4,8*%
%TO.N,/PIN4-8*%
X-23718800Y27608500D03*
%TO.P,PINS4,7*%
%TO.N,/PIN4-7*%
X-26258800Y27608500D03*
%TO.P,PINS4,6*%
%TO.N,/PIN4-6*%
X-28798800Y27608500D03*
%TD*%
D19*
%TO.P,TORNILLO-1,1*%
%TO.N,N/C*%
X-44987200Y32490400D03*
%TD*%
D20*
%TO.P,U3,1*%
%TO.N,/DX11*%
X-24375800Y-15948400D03*
%TO.P,U3,2*%
%TO.N,/DX12*%
X-26915800Y-15948400D03*
%TO.P,U3,10*%
%TO.N,VCC*%
X-39625800Y-4658400D03*
%TO.P,U3,3*%
%TO.N,/DX10*%
X-29455800Y-15948400D03*
%TO.P,U3,11*%
%TO.N,/PIN3-4*%
X-37085800Y-4658400D03*
%TO.P,U3,4*%
%TO.N,/DX9*%
X-31995800Y-15948400D03*
%TO.P,U3,12*%
%TO.N,/PIN3-3*%
X-34545800Y-4658400D03*
%TO.P,U3,5*%
%TO.N,/DX21*%
X-34535800Y-15948400D03*
D21*
%TO.P,U3,13*%
%TO.N,GND*%
X-32005800Y-4658400D03*
D20*
%TO.P,U3,6*%
%TO.N,/DX22*%
X-37075800Y-15948400D03*
%TO.P,U3,14*%
%TO.N,Net-(U2-Pad9)*%
X-29465800Y-4658400D03*
%TO.P,U3,7*%
%TO.N,/DX24*%
X-39605800Y-15948400D03*
%TO.P,U3,15*%
%TO.N,/DX23*%
X-26925800Y-4658400D03*
D21*
%TO.P,U3,8*%
%TO.N,GND*%
X-42145800Y-15943400D03*
D20*
%TO.P,U3,16*%
%TO.N,VCC*%
X-24385800Y-4658400D03*
%TD*%
%TO.P,U2,16*%
%TO.N,VCC*%
X-22190600Y2358900D03*
D21*
%TO.P,U2,8*%
%TO.N,GND*%
X-4430600Y13643900D03*
D20*
%TO.P,U2,15*%
%TO.N,/DX5*%
X-19650600Y2358900D03*
%TO.P,U2,7*%
%TO.N,/DX20*%
X-6970600Y13648900D03*
%TO.P,U2,14*%
%TO.N,Net-(U1-Pad9)*%
X-17110600Y2358900D03*
%TO.P,U2,6*%
%TO.N,/DX19*%
X-9500600Y13648900D03*
D21*
%TO.P,U2,13*%
%TO.N,GND*%
X-14570600Y2358900D03*
D20*
%TO.P,U2,5*%
%TO.N,/DX18*%
X-12040600Y13648900D03*
%TO.P,U2,12*%
%TO.N,/PIN3-3*%
X-12030600Y2358900D03*
%TO.P,U2,4*%
%TO.N,/DX17*%
X-14580600Y13648900D03*
%TO.P,U2,11*%
%TO.N,/PIN3-4*%
X-9490600Y2358900D03*
%TO.P,U2,3*%
%TO.N,/DX8*%
X-17120600Y13648900D03*
%TO.P,U2,10*%
%TO.N,VCC*%
X-6950600Y2358900D03*
%TO.P,U2,2*%
%TO.N,/DX7*%
X-19660600Y13648900D03*
%TO.P,U2,9*%
%TO.N,Net-(U2-Pad9)*%
X-4410600Y2358900D03*
%TO.P,U2,1*%
%TO.N,/DX6*%
X-22200600Y13648900D03*
%TD*%
%TO.P,U1,16*%
%TO.N,VCC*%
X-43399600Y2409700D03*
D21*
%TO.P,U1,8*%
%TO.N,GND*%
X-25639600Y13694700D03*
D20*
%TO.P,U1,15*%
%TO.N,/DX1*%
X-40859600Y2409700D03*
%TO.P,U1,7*%
%TO.N,/DX16*%
X-28179600Y13699700D03*
%TO.P,U1,14*%
%TO.N,/PIN3-5*%
X-38319600Y2409700D03*
%TO.P,U1,6*%
%TO.N,/DX15*%
X-30709600Y13699700D03*
D21*
%TO.P,U1,13*%
%TO.N,GND*%
X-35779600Y2409700D03*
D20*
%TO.P,U1,5*%
%TO.N,/DX14*%
X-33249600Y13699700D03*
%TO.P,U1,12*%
%TO.N,/PIN3-3*%
X-33239600Y2409700D03*
%TO.P,U1,4*%
%TO.N,/DX13*%
X-35789600Y13699700D03*
%TO.P,U1,11*%
%TO.N,/PIN3-4*%
X-30699600Y2409700D03*
%TO.P,U1,3*%
%TO.N,/DX4*%
X-38329600Y13699700D03*
%TO.P,U1,10*%
%TO.N,VCC*%
X-28159600Y2409700D03*
%TO.P,U1,2*%
%TO.N,/DX3*%
X-40869600Y13699700D03*
%TO.P,U1,9*%
%TO.N,Net-(U1-Pad9)*%
X-25619600Y2409700D03*
%TO.P,U1,1*%
%TO.N,/DX2*%
X-43409600Y13699700D03*
%TD*%
D22*
%TO.P,SP1,2*%
%TO.N,GND*%
X7262000Y19367000D03*
D23*
%TO.P,SP1,1*%
%TO.N,/PIN10-38*%
X14862000Y19367000D03*
%TD*%
D24*
%TO.P,J1,15*%
%TO.N,/PIN3-2*%
X-34747600Y-28185500D03*
D25*
%TO.P,J1,14*%
%TO.N,GND*%
X-29667600Y-28185500D03*
%TO.P,J1,13*%
%TO.N,VCC*%
X-24587600Y-28185500D03*
D26*
%TO.P,J1,12*%
%TO.N,/PIN3-2*%
X-19507600Y-28185500D03*
D27*
%TO.P,J1,11*%
%TO.N,GND*%
X-14427600Y-28185500D03*
D24*
%TO.P,J1,10*%
%TO.N,VCC*%
X-9347600Y-28185500D03*
%TO.P,J1,9*%
%TO.N,/PIN3-2*%
X-4267600Y-28185500D03*
D27*
%TO.P,J1,8*%
%TO.N,GND*%
X812400Y-28185500D03*
D24*
%TO.P,J1,7*%
%TO.N,VCC*%
X5892400Y-28185500D03*
%TO.P,J1,6*%
%TO.N,/PIN3-6*%
X10972400Y-28185500D03*
%TO.P,J1,5*%
%TO.N,/PIN3-7*%
X16052400Y-28185500D03*
D27*
%TO.P,J1,4*%
%TO.N,GND*%
X21132400Y-28185500D03*
D24*
%TO.P,J1,3*%
%TO.N,+9V*%
X26212400Y-28185500D03*
%TO.P,J1,2*%
%TO.N,/PIN3-8*%
X31292400Y-28185500D03*
D27*
%TO.P,J1,1*%
%TO.N,GND*%
X36372400Y-28185500D03*
%TD*%
D19*
%TO.P,TORNILLO-5,1*%
%TO.N,N/C*%
X-44987200Y-32490400D03*
%TD*%
%TO.P,TORNILLO-6,1*%
%TO.N,N/C*%
X44987200Y-32490400D03*
%TD*%
%TO.P,TORNILLO-4,1*%
%TO.N,N/C*%
X-4166000Y-15052400D03*
%TD*%
%TO.P,TORNILLO-2,1*%
%TO.N,N/C*%
X44987200Y32490400D03*
%TD*%
%TO.P,TORNILLO-3,1*%
%TO.N,N/C*%
X22549000Y19675000D03*
%TD*%
D28*
%TO.N,VCC*%
X24540000Y-3040000D03*
X-39624000Y-8736600D03*
X-21349000Y-7967000D03*
X-40891000Y-20742000D03*
X-12030000Y-6020000D03*
%TO.N,GND*%
X-25640000Y17630000D03*
X-384000Y14460000D03*
X-42487000Y-10919000D03*
X34870000Y-15530000D03*
%TO.N,/DX5*%
X-28870000Y18270000D03*
X-19260000Y-650000D03*
%TO.N,/DX18*%
X-384000Y16420000D03*
X-22930000Y10120000D03*
%TO.N,/DX17*%
X-25562800Y20220000D03*
X-15740000Y20220000D03*
%TO.N,/PIN5-6*%
X-34340000Y19990000D03*
X-20850000Y18490000D03*
X-33780000Y9920000D03*
X-9060000Y20310000D03*
%TO.N,/PIN10-42*%
X19810000Y-900000D03*
%TO.N,/PIN10-40*%
X6420000Y420000D03*
%TO.N,/PIN10-44*%
X22330000Y-2960000D03*
%TO.N,/PIN3-5*%
X-42600000Y8990000D03*
%TO.N,/PIN3-4*%
X-37086000Y-8747000D03*
X-17710000Y-5786000D03*
%TO.N,/PIN3-3*%
X-20040000Y-5010000D03*
X-34650000Y-8758000D03*
%TD*%
D29*
%TO.N,VCC*%
X-28159600Y1962700D02*
X-28159600Y4407400D01*
X-28159600Y4407400D02*
X-27717000Y4850000D01*
X-27717000Y4850000D02*
X-23755000Y4850000D01*
X-39625800Y-4658400D02*
X-39625800Y-7141800D01*
X-22190600Y2358900D02*
X-22190600Y1100800D01*
X10820000Y15072000D02*
X7596000Y11848000D01*
X7596000Y11848000D02*
X7596000Y8840100D01*
X-39625800Y-8734800D02*
X-39624000Y-8736600D01*
X-39625800Y-4658400D02*
X-39625800Y-8734800D01*
X-24385800Y-4658400D02*
X-24385800Y-5194200D01*
X-23700000Y-7967000D02*
X-24385800Y-7281200D01*
X-21349000Y-7967000D02*
X-23700000Y-7967000D01*
X-24385800Y-7281200D02*
X-24385800Y-4658400D01*
X-10570646Y-6020000D02*
X-8608566Y-4057920D01*
X-12030000Y-6020000D02*
X-10570646Y-6020000D01*
X-21213000Y-7967000D02*
X-20713671Y-8466329D01*
X-21349000Y-7967000D02*
X-21213000Y-7967000D01*
X-20713671Y-8466329D02*
X-13016975Y-8466329D01*
X-8608567Y-4057921D02*
X-8157920Y-4057921D01*
X25094800Y10874800D02*
X25094800Y14415200D01*
X25094800Y10874800D02*
X25094800Y13525200D01*
X24438000Y15072000D02*
X19038000Y15072000D01*
X25094800Y14415200D02*
X24438000Y15072000D01*
X19038000Y15072000D02*
X10820000Y15072000D01*
X24479500Y6300100D02*
X25094800Y5684800D01*
X21026000Y6300100D02*
X24479500Y6300100D01*
X25094800Y5684800D02*
X25094800Y10874800D01*
X-8608566Y-4057920D02*
X-9025323Y-4474677D01*
X-9025323Y-4474677D02*
X-8608567Y-4057921D01*
X-13016975Y-8466329D02*
X-9025323Y-4474677D01*
X25094800Y-2485200D02*
X24540000Y-3040000D01*
X25094800Y-74800D02*
X25094800Y-2485200D01*
X25094800Y-74800D02*
X25094800Y5684800D01*
X-43668000Y-20742000D02*
X-40891000Y-20742000D01*
X-45490000Y-18920000D02*
X-43668000Y-20742000D01*
X-45490000Y1690000D02*
X-45490000Y-18920000D01*
X-44770300Y2409700D02*
X-45490000Y1690000D01*
X-43399600Y2409700D02*
X-44770300Y2409700D01*
X-4780000Y-4057920D02*
X-8608566Y-4057920D01*
X-3162080Y-4057920D02*
X-4780000Y-4057920D01*
X-2720000Y-3615840D02*
X-3162080Y-4057920D01*
X-2720000Y4140000D02*
X-2720000Y-3615840D01*
X-3430000Y4850000D02*
X-2720000Y4140000D01*
X-9060000Y4850000D02*
X-21500000Y4850000D01*
X-22190600Y4719400D02*
X-22060000Y4850000D01*
X-22190600Y2358900D02*
X-22190600Y4719400D01*
X-22060000Y4850000D02*
X-23755000Y4850000D01*
X-21500000Y4850000D02*
X-22060000Y4850000D01*
X-6950600Y4370600D02*
X-7430000Y4850000D01*
X-6950600Y2358900D02*
X-6950600Y4370600D01*
X-7430000Y4850000D02*
X-3430000Y4850000D01*
X-9060000Y4850000D02*
X-7430000Y4850000D01*
%TO.N,GND*%
X17301000Y-9675500D02*
X20349000Y-9675500D01*
X20349000Y-9675500D02*
X23397000Y-9675500D01*
X-42145800Y-11260200D02*
X-42487000Y-10919000D01*
X-42145800Y-15943400D02*
X-42145800Y-11260200D01*
X-33445991Y-10933270D02*
X-42472730Y-10933270D01*
X-32005800Y-4658400D02*
X-32005800Y-9493080D01*
X-32005800Y-9493080D02*
X-33445991Y-10933270D01*
X-42472730Y-10933270D02*
X-42487000Y-10919000D01*
X-32005800Y-4658400D02*
X-32005800Y-2785800D01*
X-4430600Y13643900D02*
X-2766100Y13643900D01*
X-1950000Y14460000D02*
X-384000Y14460000D01*
X-2766100Y13643900D02*
X-1950000Y14460000D01*
X-41182321Y-1275990D02*
X-42145800Y-2239469D01*
X-38209651Y-1275990D02*
X-41182321Y-1275990D01*
X-37481973Y-548312D02*
X-38209651Y-1275990D01*
X-42145800Y-3245800D02*
X-42145800Y-11260200D01*
X-42145800Y-2239469D02*
X-42145800Y-3245800D01*
X-36537611Y-548311D02*
X-37481973Y-548312D01*
X-35779600Y209700D02*
X-36537611Y-548311D01*
X-35779600Y2409700D02*
X-35779600Y209700D01*
X34870000Y-13610000D02*
X34870000Y-15530000D01*
X30880000Y-12360000D02*
X33620000Y-12360000D01*
X33620000Y-12360000D02*
X34870000Y-13610000D01*
X28195500Y-9675500D02*
X30880000Y-12360000D01*
X23397000Y-9675500D02*
X28195500Y-9675500D01*
X-25639600Y17629600D02*
X-25640000Y17630000D01*
X-25639600Y13694700D02*
X-25639600Y17629600D01*
X-30670010Y-912010D02*
X-32005800Y-2247800D01*
X-22454320Y-912010D02*
X-30670010Y-912010D01*
X-32005800Y-2247800D02*
X-32005800Y-4658400D01*
X-19806332Y-3560000D02*
X-22454320Y-912010D01*
X-15609746Y-3560000D02*
X-19806332Y-3560000D01*
X-14570600Y-2520854D02*
X-15609746Y-3560000D01*
X-14570600Y2358900D02*
X-14570600Y-2520854D01*
%TO.N,Net-(U1-Pad9)*%
X-24891000Y-158000D02*
X-25619600Y570600D01*
X-25619600Y570600D02*
X-25619600Y2409700D01*
X-22142000Y-158000D02*
X-24891000Y-158000D01*
X-19494012Y-2805990D02*
X-22142000Y-158000D01*
X-17600000Y-2805990D02*
X-19494012Y-2805990D01*
X-17110600Y-2316590D02*
X-17600000Y-2805990D01*
X-17110600Y2358900D02*
X-17110600Y-2316590D01*
%TO.N,Net-(U2-Pad9)*%
X-29465800Y-2458400D02*
X-29465800Y-4658400D01*
X-28673420Y-1666020D02*
X-29465800Y-2458400D01*
X-21886330Y-5623670D02*
X-21886330Y-2546330D01*
X-22766640Y-1666020D02*
X-28673420Y-1666020D01*
X-20030000Y-7480000D02*
X-21886330Y-5623670D01*
X-21886330Y-2546330D02*
X-22766640Y-1666020D01*
X-16321008Y-7480000D02*
X-20030000Y-7480000D01*
X-11221008Y-2380000D02*
X-16321008Y-7480000D01*
X-6480000Y-2380000D02*
X-11221008Y-2380000D01*
X-4410600Y-310600D02*
X-6480000Y-2380000D01*
X-4410600Y2358900D02*
X-4410600Y-310600D01*
%TO.N,/DX12*%
X-855834Y-9335990D02*
X3762030Y-4718126D01*
X-6422321Y-9335990D02*
X-855834Y-9335990D01*
X-10830729Y-13744399D02*
X-6422321Y-9335990D01*
X-25579001Y-13744399D02*
X-10830729Y-13744399D01*
X-26915800Y-15081198D02*
X-25579001Y-13744399D01*
X-26915800Y-15948400D02*
X-26915800Y-15081198D01*
X3762030Y18674301D02*
X-806169Y23242500D01*
X-806169Y23242500D02*
X-3978800Y23242500D01*
X3762030Y-4718126D02*
X3762030Y18674301D01*
%TO.N,/DX11*%
X-6518800Y24981200D02*
X-6518800Y23242500D01*
X-6253490Y25246510D02*
X-6518800Y24981200D01*
X-10518409Y-14498409D02*
X-6110000Y-10090000D01*
X-543513Y-10090000D02*
X4516040Y-5030447D01*
X-22925809Y-14498409D02*
X-24375800Y-15948400D01*
X-22781591Y-14498409D02*
X-22925809Y-14498409D01*
X-22781591Y-14498409D02*
X-10518409Y-14498409D01*
X-6110000Y-10090000D02*
X-543513Y-10090000D01*
X4516040Y18986622D02*
X-1743848Y25246510D01*
X4516040Y-5030447D02*
X4516040Y18986622D01*
X-1743848Y25246510D02*
X-6253490Y25246510D01*
%TO.N,/DX10*%
X-29455800Y-15948400D02*
X-29455800Y-13748400D01*
X-1168155Y-8581980D02*
X3008020Y-4405805D01*
X3008020Y-4405805D02*
X3008020Y18361980D01*
X-29455800Y-13748400D02*
X-28697789Y-12990389D01*
X-28697789Y-12990389D02*
X-11143050Y-12990389D01*
X-11143050Y-12990389D02*
X-6734642Y-8581980D01*
X3008020Y18361980D02*
X2300000Y19070000D01*
X-6734642Y-8581980D02*
X-1168155Y-8581980D01*
X2300000Y19070000D02*
X-10660000Y19070000D01*
X-11598800Y20008800D02*
X-11598800Y23242500D01*
X-10660000Y19070000D02*
X-11598800Y20008800D01*
%TO.N,/DX9*%
X-31995800Y-13977000D02*
X-31995800Y-15948400D01*
X-11455371Y-12236379D02*
X-30255179Y-12236379D01*
X-7046963Y-7827970D02*
X-11455371Y-12236379D01*
X-30255179Y-12236379D02*
X-31995800Y-13977000D01*
X-1480476Y-7827970D02*
X-7046963Y-7827970D01*
X2254010Y-4093484D02*
X-1480476Y-7827970D01*
X2254010Y13644010D02*
X2254010Y16875990D01*
X2254010Y13644010D02*
X2254010Y-4093484D01*
X2254010Y16875990D02*
X1480000Y17650000D01*
X-870000Y17650000D02*
X-546131Y17650000D01*
X1480000Y17650000D02*
X-870000Y17650000D01*
X-14138800Y23242500D02*
X-14138800Y19028800D01*
X-12760000Y17650000D02*
X-870000Y17650000D01*
X-14138800Y19028800D02*
X-12760000Y17650000D01*
%TO.N,/DX8*%
X-16678800Y21661200D02*
X-16678800Y23242500D01*
X-17120600Y21219400D02*
X-16678800Y21661200D01*
X-17120600Y13648900D02*
X-17120600Y21219400D01*
%TO.N,/DX7*%
X-19218800Y15681200D02*
X-19660600Y15239400D01*
X-19660600Y15239400D02*
X-19660600Y12981900D01*
X-19218800Y23242500D02*
X-19218800Y15681200D01*
%TO.N,/DX6*%
X-22200600Y16391600D02*
X-22200600Y12981900D01*
X-24298800Y20872469D02*
X-22810000Y19383669D01*
X-24298800Y23242500D02*
X-24298800Y20872469D01*
X-22200600Y17030600D02*
X-22810000Y17640000D01*
X-22200600Y13648900D02*
X-22200600Y17030600D01*
X-22810000Y19383669D02*
X-22810000Y17640000D01*
%TO.N,/DX5*%
X-19650600Y-259400D02*
X-19260000Y-650000D01*
X-19650600Y2358900D02*
X-19650600Y-259400D01*
X-26838800Y23242500D02*
X-26838800Y20301200D01*
X-26838800Y20301200D02*
X-28870000Y18270000D01*
X-28870000Y18270000D02*
X-28870000Y18378000D01*
%TO.N,/DX4*%
X-38325969Y13256331D02*
X-38329600Y13252700D01*
X-29378800Y23242500D02*
X-29378800Y19931200D01*
X-29378800Y19931200D02*
X-32550000Y16760000D01*
X-37719200Y16760000D02*
X-38329600Y16149600D01*
X-38329600Y13699700D02*
X-38329600Y16149600D01*
X-32550000Y16760000D02*
X-37719200Y16760000D01*
%TO.N,/DX3*%
X-40869600Y17044400D02*
X-40869600Y13699700D01*
X-39814000Y18100000D02*
X-40869600Y17044400D01*
X-31918800Y23242500D02*
X-31918800Y19361200D01*
X-33180000Y18100000D02*
X-39814000Y18100000D01*
X-31918800Y19361200D02*
X-33180000Y18100000D01*
%TO.N,/DX2*%
X-36998800Y21331200D02*
X-36998800Y23242500D01*
X-41010000Y20940000D02*
X-37390000Y20940000D01*
X-43409600Y18540400D02*
X-41010000Y20940000D01*
X-37390000Y20940000D02*
X-36998800Y21331200D01*
X-43409600Y13252700D02*
X-43409600Y18540400D01*
%TO.N,/DX1*%
X-45750000Y20830000D02*
X-43337500Y23242500D01*
X-45750000Y7180000D02*
X-45750000Y20830000D01*
X-44040000Y5470000D02*
X-45750000Y7180000D01*
X-42510000Y5470000D02*
X-44040000Y5470000D01*
X-43337500Y23242500D02*
X-39538800Y23242500D01*
X-40859600Y3819600D02*
X-42510000Y5470000D01*
X-40859600Y2409700D02*
X-40859600Y3819600D01*
%TO.N,/DX24*%
X-33133671Y-11687280D02*
X-39002480Y-11687280D01*
X-39002480Y-11687280D02*
X-39605800Y-12290600D01*
X-31420740Y-9974349D02*
X-33133671Y-11687280D01*
X-12392334Y-9974349D02*
X-31420740Y-9974349D01*
X-7983926Y-5565940D02*
X-12392334Y-9974349D01*
X-2455940Y-5565940D02*
X-7983926Y-5565940D01*
X-39605800Y-12290600D02*
X-39605800Y-15948400D01*
X-1211980Y4764642D02*
X-1211980Y-4321980D01*
X-1211980Y-4321980D02*
X-2455940Y-5565940D01*
X-3687839Y7240500D02*
X-1211980Y4764642D01*
X-3978800Y7240500D02*
X-3687839Y7240500D01*
%TO.N,/DX23*%
X-8296246Y-4811930D02*
X-12704654Y-9220339D01*
X-3227599Y-4811930D02*
X-8296246Y-4811930D01*
X-26009661Y-9220339D02*
X-26925800Y-8304200D01*
X-12704654Y-9220339D02*
X-26009661Y-9220339D01*
X-26925800Y-8304200D02*
X-26925800Y-4658400D01*
X-8737936Y-5253620D02*
X-8722158Y-5237843D01*
X-2849759Y-4811930D02*
X-8296247Y-4811930D01*
X-1965990Y-3928161D02*
X-2849759Y-4811930D01*
X-1965990Y4452321D02*
X-1965990Y-3928161D01*
X-8296247Y-4811930D02*
X-8737936Y-5253620D01*
X-3117679Y5604010D02*
X-1965990Y4452321D01*
X-6296523Y5604010D02*
X-3117679Y5604010D01*
X-6518800Y5826287D02*
X-6296523Y5604010D01*
X-6518800Y7240500D02*
X-6518800Y5826287D01*
%TO.N,/DX22*%
X-32821351Y-12441290D02*
X-36352890Y-12441290D01*
X-12080014Y-10728359D02*
X-31108419Y-10728359D01*
X-7671605Y-6319950D02*
X-12080014Y-10728359D01*
X-2105118Y-6319950D02*
X-7671605Y-6319950D01*
X745990Y7057680D02*
X745990Y-3468842D01*
X-940831Y8744501D02*
X745990Y7057680D01*
X-11204699Y8744501D02*
X-940831Y8744501D01*
X-31108419Y-10728359D02*
X-32821351Y-12441290D01*
X-11598800Y8350400D02*
X-11204699Y8744501D01*
X-37075800Y-13164200D02*
X-37075800Y-15948400D01*
X-36352890Y-12441290D02*
X-37075800Y-13164200D01*
X745990Y-3468842D02*
X-2105118Y-6319950D01*
X-11598800Y7240500D02*
X-11598800Y8350400D01*
%TO.N,/DX21*%
X-34535800Y-13748400D02*
X-34535800Y-15948400D01*
X-33982700Y-13195300D02*
X-34535800Y-13748400D01*
X-32509031Y-13195300D02*
X-33982700Y-13195300D01*
X-30796099Y-11482369D02*
X-32509031Y-13195300D01*
X-7359284Y-7073960D02*
X-11767692Y-11482369D01*
X-1792797Y-7073960D02*
X-7359284Y-7073960D01*
X1500000Y-3781163D02*
X-1792797Y-7073960D01*
X1500000Y7370000D02*
X1500000Y-3781163D01*
X-13701889Y9498511D02*
X-628511Y9498511D01*
X-11767692Y-11482369D02*
X-30796099Y-11482369D01*
X-628511Y9498511D02*
X1500000Y7370000D01*
X-14138800Y9061600D02*
X-13701889Y9498511D01*
X-14138800Y7240500D02*
X-14138800Y9061600D01*
%TO.N,/DX20*%
X-16678800Y7240500D02*
X-16678800Y9368800D01*
X-16678800Y9368800D02*
X-15896600Y10151000D01*
X-16678800Y9518800D02*
X-16678800Y7240500D01*
X-6970600Y10594400D02*
X-7264000Y10301000D01*
X-15896600Y10301000D02*
X-16678800Y9518800D01*
X-7264000Y10301000D02*
X-15896600Y10301000D01*
X-6970600Y13648900D02*
X-6970600Y10594400D01*
%TO.N,/DX19*%
X-19218800Y9468000D02*
X-19218800Y7240500D01*
X-9500600Y13648900D02*
X-9500600Y11598900D01*
X-9500600Y11598900D02*
X-9894490Y11205010D01*
X-17481790Y11205010D02*
X-19218800Y9468000D01*
X-9894490Y11205010D02*
X-17481790Y11205010D01*
%TO.N,/DX18*%
X-12040600Y13648900D02*
X-12040600Y16024600D01*
X-11645200Y16420000D02*
X-12040600Y16024600D01*
X-24298800Y8751200D02*
X-22930000Y10120000D01*
X-24298800Y7240500D02*
X-24298800Y8751200D01*
X-384000Y16420000D02*
X-2220000Y16420000D01*
X-2220000Y16420000D02*
X-11645200Y16420000D01*
X-1710000Y16420000D02*
X-2220000Y16420000D01*
%TO.N,/DX17*%
X-15740000Y18080000D02*
X-15730000Y18070000D01*
X-15740000Y20220000D02*
X-15740000Y18080000D01*
X-15730000Y19320000D02*
X-15730000Y18070000D01*
X-23929000Y17053670D02*
X-23929000Y11679000D01*
X-25562800Y20220000D02*
X-23900000Y18557200D01*
X-23900000Y11708000D02*
X-24129000Y11479000D01*
X-23900000Y18557200D02*
X-23900000Y11708000D01*
X-24129000Y11479000D02*
X-23929000Y11679000D01*
X-26838800Y8769200D02*
X-24129000Y11479000D01*
X-26838800Y7240500D02*
X-26838800Y8769200D01*
X-14580600Y16920600D02*
X-15730000Y18070000D01*
X-14580600Y13648900D02*
X-14580600Y16920600D01*
%TO.N,/DX16*%
X-28179600Y13032700D02*
X-28179600Y10119400D01*
X-28179600Y10119400D02*
X-29378800Y8920200D01*
X-28179600Y13699700D02*
X-28179600Y10119400D01*
X-29378800Y7240500D02*
X-29378800Y8920200D01*
%TO.N,/DX15*%
X-31918800Y8950400D02*
X-30709600Y10159600D01*
X-31918800Y7240500D02*
X-31918800Y8950400D01*
X-30709600Y13699700D02*
X-30709600Y10159600D01*
%TO.N,/DX14*%
X-36998800Y9050500D02*
X-36998800Y8741200D01*
X-33249600Y12799700D02*
X-36998800Y9050500D01*
X-33249600Y13699700D02*
X-33249600Y12799700D01*
X-36998800Y8741200D02*
X-36998800Y7240500D01*
%TO.N,/DX13*%
X-35789600Y12799700D02*
X-39538800Y9050500D01*
X-39538800Y9050500D02*
X-39538800Y7240500D01*
X-35789600Y13699700D02*
X-35789600Y12799700D01*
%TO.N,/PIN5-6*%
X-9058800Y5783200D02*
X-9058800Y7240500D01*
X-9237990Y5604010D02*
X-9058800Y5783200D01*
X-21758800Y5850800D02*
X-21512010Y5604010D01*
X-21758800Y7240500D02*
X-21758800Y5850800D01*
X-21512010Y5604010D02*
X-9237990Y5604010D01*
X-34458800Y6096400D02*
X-34458800Y7240500D01*
X-33966410Y5604010D02*
X-34458800Y6096400D01*
X-21512010Y5604010D02*
X-33966410Y5604010D01*
X-21758800Y19398800D02*
X-20850000Y18490000D01*
X-21758800Y23242500D02*
X-21758800Y19398800D01*
X-34458800Y7240500D02*
X-34458800Y9241200D01*
X-34458800Y9241200D02*
X-33780000Y9920000D01*
X-9058800Y23242500D02*
X-9058800Y20311200D01*
X-9058800Y20311200D02*
X-9060000Y20310000D01*
X-34458800Y23242500D02*
X-34458800Y20108800D01*
X-34458800Y20108800D02*
X-34340000Y19990000D01*
%TO.N,/PIN10-42*%
X21026000Y8840100D02*
X19150100Y8840100D01*
X19150100Y8840100D02*
X18030000Y7720000D01*
X20349000Y-1439000D02*
X19810000Y-900000D01*
X20349000Y-6750500D02*
X20349000Y-1439000D01*
X18030000Y880000D02*
X19810000Y-900000D01*
X18030000Y2750000D02*
X18030000Y880000D01*
X18030000Y7720000D02*
X18030000Y2750000D01*
%TO.N,/PIN10-40*%
X17301000Y-6750500D02*
X17301000Y-3501000D01*
X17301000Y-3501000D02*
X15820000Y-2020000D01*
X15820000Y-2020000D02*
X11910000Y-2020000D01*
X9470000Y420000D02*
X6420000Y420000D01*
X7596000Y2294000D02*
X10540000Y-650000D01*
X7596000Y3750100D02*
X7596000Y2294000D01*
X10540000Y-650000D02*
X9470000Y420000D01*
X11910000Y-2020000D02*
X10540000Y-650000D01*
%TO.N,/PIN10-44*%
X23397000Y-6750500D02*
X23397000Y-5256000D01*
X22330000Y2456100D02*
X21036000Y3750100D01*
X22330000Y-2960000D02*
X22330000Y2456100D01*
X22330000Y-4189000D02*
X23397000Y-5256000D01*
X22330000Y-2960000D02*
X22330000Y-4189000D01*
%TO.N,/PIN3-5*%
X-38319600Y2409700D02*
X-38319600Y4349600D01*
X-38319600Y4349600D02*
X-39010000Y5040000D01*
X-41013670Y5040000D02*
X-42600000Y6626330D01*
X-40000000Y5040000D02*
X-41013670Y5040000D01*
X-39010000Y5040000D02*
X-40000000Y5040000D01*
X-42600000Y6626330D02*
X-42600000Y8990000D01*
%TO.N,/PIN3-4*%
X-37086000Y-8747000D02*
X-37086000Y-4658600D01*
X-37086000Y-4658600D02*
X-37085800Y-4658400D01*
X-15693338Y-5786000D02*
X-15090169Y-5182831D01*
X-17710000Y-5786000D02*
X-15693338Y-5786000D01*
X-15375339Y-5468000D02*
X-15090169Y-5182831D01*
X-9490600Y2358900D02*
X-9490600Y-950600D01*
X-11533330Y-1625990D02*
X-11743670Y-1836330D01*
X-10165990Y-1625990D02*
X-11533330Y-1625990D01*
X-9490600Y-950600D02*
X-10165990Y-1625990D01*
X-15090169Y-5182831D02*
X-11743670Y-1836330D01*
X-30699600Y124731D02*
X-32880661Y-2056331D01*
X-36857331Y-2056331D02*
X-37085800Y-2284800D01*
X-30699600Y2409700D02*
X-30699600Y124731D01*
X-32880661Y-2056331D02*
X-36857331Y-2056331D01*
X-37085800Y-2284800D02*
X-37085800Y-4658400D01*
%TO.N,/PIN3-3*%
X-34648600Y-4761200D02*
X-34545800Y-4658400D01*
X-34545800Y-8653800D02*
X-34650000Y-8758000D01*
X-34545800Y-4658400D02*
X-34545800Y-8653800D01*
X-12030600Y-1056931D02*
X-14258279Y-3284610D01*
X-14268026Y-3284610D02*
X-15545437Y-4562021D01*
X-14258279Y-3284610D02*
X-14268026Y-3284610D01*
X-12030600Y2358900D02*
X-12030600Y-1056931D01*
X-40839740Y-10029260D02*
X-34889260Y-10029260D01*
X-41391790Y-9477210D02*
X-40839740Y-10029260D01*
X-41391790Y-2551790D02*
X-41391790Y-9477210D01*
X-40870000Y-2030000D02*
X-41391790Y-2551790D01*
X-34889260Y-10029260D02*
X-34650000Y-9790000D01*
X-37169652Y-1302321D02*
X-37897331Y-2030000D01*
X-33733000Y-1302321D02*
X-37169652Y-1302321D01*
X-37897331Y-2030000D02*
X-40870000Y-2030000D01*
X-33239600Y-808921D02*
X-33733000Y-1302321D01*
X-34650000Y-9790000D02*
X-34650000Y-8758000D01*
X-33239600Y2409700D02*
X-33239600Y-808921D01*
X-19592021Y-4562021D02*
X-20040000Y-5010000D01*
X-18182021Y-4562021D02*
X-19592021Y-4562021D01*
X-15545437Y-4562021D02*
X-18182021Y-4562021D01*
X-18182021Y-4562021D02*
X-19083021Y-4562021D01*
%TD*%
M02*
