M48
; DRILL file {KiCad 5.1.10} date Sat Sep  4 20:09:03 2021
; FORMAT={-:-/ absolute / metric / decimal}
; #@! TF.CreationDate,2021-09-04T20:09:03+02:00
; #@! TF.GenerationSoftware,Kicad,Pcbnew,5.1.10
; #@! TF.FileFunction,Plated,1,2,PTH
FMAT,2
METRIC
T1C0.410
T2C0.500
T3C0.800
T4C0.900
T5C1.000
T6C1.300
T7C3.000
%
G90
G05
T1
X-42.6Y8.99
X-42.487Y-10.919
X-40.891Y-20.742
X-39.624Y-8.737
X-37.086Y-8.747
X-34.65Y-8.758
X-34.34Y19.99
X-33.78Y9.92
X-28.87Y18.27
X-25.64Y17.63
X-25.563Y20.22
X-22.93Y10.12
X-21.349Y-7.967
X-20.85Y18.49
X-20.04Y-5.01
X-19.26Y-0.65
X-17.71Y-5.786
X-15.74Y20.22
X-12.03Y-6.02
X-9.06Y20.31
X-0.384Y16.42
X-0.384Y14.46
X6.42Y0.42
X19.81Y-0.9
X22.33Y-2.96
X24.54Y-3.04
X34.87Y-15.53
T2
X-39.539Y23.242
X-39.539Y7.24
X-36.999Y23.242
X-36.999Y7.24
X-34.459Y23.242
X-34.459Y7.24
X-31.919Y23.242
X-31.919Y7.24
X-29.379Y23.242
X-29.379Y7.24
X-26.839Y23.242
X-26.839Y7.24
X-24.299Y23.242
X-24.299Y7.24
X-21.759Y23.242
X-21.759Y7.24
X-19.219Y23.242
X-19.219Y7.24
X-16.679Y23.242
X-16.679Y7.24
X-14.139Y23.242
X-14.139Y7.24
X-11.599Y23.242
X-11.599Y7.24
X-9.059Y23.242
X-9.059Y7.24
X-6.519Y23.242
X-6.519Y7.24
X-3.979Y23.242
X-3.979Y7.24
T3
X7.262Y19.367
X14.862Y19.367
X28.87Y25.11
T4
X-28.799Y27.608
X-26.929Y-20.482
X-26.259Y27.608
X-24.389Y-20.482
X-23.719Y27.608
X-19.789Y27.604
X-19.309Y-20.482
X-17.249Y27.604
X-14.709Y27.604
X-14.428Y-28.185
X-12.169Y27.604
X-9.629Y27.604
X-9.348Y-28.185
X-7.089Y27.604
X-4.549Y27.604
X-4.268Y-28.185
X-2.009Y27.604
X0.812Y-28.185
X5.892Y-28.185
X10.972Y-28.185
X11.051Y-20.482
X13.591Y-20.482
X16.052Y-28.185
X16.131Y-20.482
X18.321Y27.604
X18.671Y-20.482
X20.861Y27.604
X21.132Y-28.185
X21.211Y-20.482
X23.751Y-20.482
X26.212Y-28.185
X26.291Y-20.482
X28.87Y22.57
X28.87Y20.03
X28.87Y4.79
X28.87Y2.25
X28.87Y-0.29
X28.87Y-2.83
X28.87Y-5.37
X31.292Y-28.185
X31.41Y25.11
X31.41Y22.57
X31.41Y20.03
X31.41Y17.49
X31.41Y14.95
X31.41Y12.41
X31.41Y9.87
X31.41Y7.33
X31.41Y4.79
X31.41Y2.25
X31.41Y-0.29
X31.41Y-2.83
X31.41Y-5.37
X31.41Y-7.91
X36.372Y-28.185
X40.125Y24.037
X40.186Y17.307
X40.186Y11.846
X40.186Y6.385
X40.186Y0.924
X40.186Y-4.537
X40.186Y-9.998
X40.186Y-15.459
X40.186Y-20.92
X42.665Y24.037
X42.726Y17.307
X42.726Y11.846
X42.726Y6.385
X42.726Y0.924
X42.726Y-4.537
X42.726Y-9.998
X42.726Y-15.459
X42.726Y-20.92
X45.205Y24.037
X45.266Y17.307
X45.266Y11.846
X45.266Y6.385
X45.266Y0.924
X45.266Y-4.537
X45.266Y-9.998
X45.266Y-15.459
X45.266Y-20.92
X47.745Y24.037
X47.806Y17.307
X47.806Y11.846
X47.806Y6.385
X47.806Y0.924
X47.806Y-4.537
X47.806Y-9.998
X47.806Y-15.459
X47.806Y-20.92
T5
X-29.668Y-28.185
X-24.588Y-28.185
X-19.508Y-28.185
X7.596Y8.84
X7.596Y3.75
X21.026Y8.84
X21.026Y6.3
X21.036Y3.75
T6
X-34.748Y-28.185
T7
X-44.987Y32.49
X-44.987Y-32.49
X-4.166Y-15.052
X22.549Y19.675
X44.987Y32.49
X44.987Y-32.49
T5
G00X15.126Y12.12
M15
G01X13.626Y12.12
M16
G05
G00X15.126Y0.5
M15
G01X13.626Y0.5
M16
G05
T0
M30
